<?xml version="1.0" encoding="UTF-8" standalone="no"?><svg xmlns="http://www.w3.org/2000/svg" xmlns:xlink="http://www.w3.org/1999/xlink" contentScriptType="application/ecmascript" contentStyleType="text/css" height="3250px" preserveAspectRatio="none" style="width:1019px;height:3250px;" version="1.1" viewBox="0 0 1019 3250" width="1019px" zoomAndPan="magnify"><defs><filter height="300%" id="f1djkb0yq70or8" width="300%" x="-1" y="-1"><feGaussianBlur result="blurOut" stdDeviation="2.0"/><feColorMatrix in="blurOut" result="blurOut2" type="matrix" values="0 0 0 0 0 0 0 0 0 0 0 0 0 0 0 0 0 0 .4 0"/><feOffset dx="4.0" dy="4.0" in="blurOut2" result="blurOut3"/><feBlend in="SourceGraphic" in2="blurOut3" mode="normal"/></filter></defs><g><rect fill="#FAEBD7" height="3235.0469" style="stroke: #A80036; stroke-width: 1.0;" width="541" x="40" y="4"/><text fill="#000000" font-family="sans-serif" font-size="13" font-weight="bold" lengthAdjust="spacingAndGlyphs" textLength="42" x="289.5" y="17.4951">九条館</text><rect fill="#F0FFF0" height="3235.0469" style="stroke: #A80036; stroke-width: 1.0;" width="264" x="722" y="4"/><text fill="#000000" font-family="sans-serif" font-size="13" font-weight="bold" lengthAdjust="spacingAndGlyphs" textLength="28" x="840" y="17.4951">組織</text><line style="stroke: #A80036; stroke-width: 1.0;" x1="105" x2="105" y1="108.9609" y2="329.4219"/><line style="stroke: #A80036; stroke-width: 1.0; stroke-dasharray: 1.0,4.0;" x1="105" x2="105" y1="329.4219" y2="371.2578"/><line style="stroke: #A80036; stroke-width: 1.0;" x1="105" x2="105" y1="371.2578" y2="445.9609"/><line style="stroke: #A80036; stroke-width: 1.0; stroke-dasharray: 1.0,4.0;" x1="105" x2="105" y1="445.9609" y2="487.7969"/><line style="stroke: #A80036; stroke-width: 1.0;" x1="105" x2="105" y1="487.7969" y2="3151.4375"/><line style="stroke: #A80036; stroke-width: 1.0;" x1="350" x2="350" y1="108.9609" y2="329.4219"/><line style="stroke: #A80036; stroke-width: 1.0; stroke-dasharray: 1.0,4.0;" x1="350" x2="350" y1="329.4219" y2="371.2578"/><line style="stroke: #A80036; stroke-width: 1.0;" x1="350" x2="350" y1="371.2578" y2="445.9609"/><line style="stroke: #A80036; stroke-width: 1.0; stroke-dasharray: 1.0,4.0;" x1="350" x2="350" y1="445.9609" y2="487.7969"/><line style="stroke: #A80036; stroke-width: 1.0;" x1="350" x2="350" y1="487.7969" y2="3151.4375"/><line style="stroke: #A80036; stroke-width: 1.0;" x1="546" x2="546" y1="108.9609" y2="329.4219"/><line style="stroke: #A80036; stroke-width: 1.0; stroke-dasharray: 1.0,4.0;" x1="546" x2="546" y1="329.4219" y2="371.2578"/><line style="stroke: #A80036; stroke-width: 1.0;" x1="546" x2="546" y1="371.2578" y2="445.9609"/><line style="stroke: #A80036; stroke-width: 1.0; stroke-dasharray: 1.0,4.0;" x1="546" x2="546" y1="445.9609" y2="487.7969"/><line style="stroke: #A80036; stroke-width: 1.0;" x1="546" x2="546" y1="487.7969" y2="3151.4375"/><line style="stroke: #A80036; stroke-width: 1.0;" x1="778" x2="778" y1="108.9609" y2="329.4219"/><line style="stroke: #A80036; stroke-width: 1.0; stroke-dasharray: 1.0,4.0;" x1="778" x2="778" y1="329.4219" y2="371.2578"/><line style="stroke: #A80036; stroke-width: 1.0;" x1="778" x2="778" y1="371.2578" y2="445.9609"/><line style="stroke: #A80036; stroke-width: 1.0; stroke-dasharray: 1.0,4.0;" x1="778" x2="778" y1="445.9609" y2="487.7969"/><line style="stroke: #A80036; stroke-width: 1.0;" x1="778" x2="778" y1="487.7969" y2="3151.4375"/><line style="stroke: #A80036; stroke-width: 1.0;" x1="958" x2="958" y1="108.9609" y2="329.4219"/><line style="stroke: #A80036; stroke-width: 1.0; stroke-dasharray: 1.0,4.0;" x1="958" x2="958" y1="329.4219" y2="371.2578"/><line style="stroke: #A80036; stroke-width: 1.0;" x1="958" x2="958" y1="371.2578" y2="445.9609"/><line style="stroke: #A80036; stroke-width: 1.0; stroke-dasharray: 1.0,4.0;" x1="958" x2="958" y1="445.9609" y2="487.7969"/><line style="stroke: #A80036; stroke-width: 1.0;" x1="958" x2="958" y1="487.7969" y2="3151.4375"/><text fill="#000000" font-family="sans-serif" font-size="14" lengthAdjust="spacingAndGlyphs" textLength="116" x="44" y="105.8848">九条正宗/八敷一男</text><ellipse cx="105" cy="34.3516" fill="#FEFECE" filter="url(#f1djkb0yq70or8)" rx="8" ry="8" style="stroke: #A80036; stroke-width: 2.0;"/><path d="M105,42.3516 L105,69.3516 M92,50.3516 L118,50.3516 M105,69.3516 L92,84.3516 M105,69.3516 L118,84.3516 " fill="none" filter="url(#f1djkb0yq70or8)" style="stroke: #A80036; stroke-width: 2.0;"/><text fill="#000000" font-family="sans-serif" font-size="14" lengthAdjust="spacingAndGlyphs" textLength="116" x="44" y="3164.9707">九条正宗/八敷一男</text><ellipse cx="105" cy="3178.0469" fill="#FEFECE" filter="url(#f1djkb0yq70or8)" rx="8" ry="8" style="stroke: #A80036; stroke-width: 2.0;"/><path d="M105,3186.0469 L105,3213.0469 M92,3194.0469 L118,3194.0469 M105,3213.0469 L92,3228.0469 M105,3213.0469 L118,3228.0469 " fill="none" filter="url(#f1djkb0yq70or8)" style="stroke: #A80036; stroke-width: 2.0;"/><text fill="#000000" font-family="sans-serif" font-size="14" lengthAdjust="spacingAndGlyphs" textLength="42" x="326" y="105.8848">メリイ</text><ellipse cx="350" cy="34.3516" fill="#FEFECE" filter="url(#f1djkb0yq70or8)" rx="8" ry="8" style="stroke: #A80036; stroke-width: 2.0;"/><path d="M350,42.3516 L350,69.3516 M337,50.3516 L363,50.3516 M350,69.3516 L337,84.3516 M350,69.3516 L363,84.3516 " fill="none" filter="url(#f1djkb0yq70or8)" style="stroke: #A80036; stroke-width: 2.0;"/><text fill="#000000" font-family="sans-serif" font-size="14" lengthAdjust="spacingAndGlyphs" textLength="42" x="326" y="3164.9707">メリイ</text><ellipse cx="350" cy="3178.0469" fill="#FEFECE" filter="url(#f1djkb0yq70or8)" rx="8" ry="8" style="stroke: #A80036; stroke-width: 2.0;"/><path d="M350,3186.0469 L350,3213.0469 M337,3194.0469 L363,3194.0469 M350,3213.0469 L337,3228.0469 M350,3213.0469 L363,3228.0469 " fill="none" filter="url(#f1djkb0yq70or8)" style="stroke: #A80036; stroke-width: 2.0;"/><text fill="#000000" font-family="sans-serif" font-size="14" lengthAdjust="spacingAndGlyphs" textLength="56" x="515" y="105.8848">九条サヤ</text><ellipse cx="546" cy="34.3516" fill="#FEFECE" filter="url(#f1djkb0yq70or8)" rx="8" ry="8" style="stroke: #A80036; stroke-width: 2.0;"/><path d="M546,42.3516 L546,69.3516 M533,50.3516 L559,50.3516 M546,69.3516 L533,84.3516 M546,69.3516 L559,84.3516 " fill="none" filter="url(#f1djkb0yq70or8)" style="stroke: #A80036; stroke-width: 2.0;"/><text fill="#000000" font-family="sans-serif" font-size="14" lengthAdjust="spacingAndGlyphs" textLength="56" x="515" y="3164.9707">九条サヤ</text><ellipse cx="546" cy="3178.0469" fill="#FEFECE" filter="url(#f1djkb0yq70or8)" rx="8" ry="8" style="stroke: #A80036; stroke-width: 2.0;"/><path d="M546,3186.0469 L546,3213.0469 M533,3194.0469 L559,3194.0469 M546,3213.0469 L533,3228.0469 M546,3213.0469 L559,3228.0469 " fill="none" filter="url(#f1djkb0yq70or8)" style="stroke: #A80036; stroke-width: 2.0;"/><text fill="#000000" font-family="sans-serif" font-size="14" lengthAdjust="spacingAndGlyphs" textLength="98" x="726" y="105.8848">ムーラン・ロゼ</text><ellipse cx="778" cy="34.3516" fill="#FEFECE" filter="url(#f1djkb0yq70or8)" rx="8" ry="8" style="stroke: #A80036; stroke-width: 2.0;"/><path d="M778,42.3516 L778,69.3516 M765,50.3516 L791,50.3516 M778,69.3516 L765,84.3516 M778,69.3516 L791,84.3516 " fill="none" filter="url(#f1djkb0yq70or8)" style="stroke: #A80036; stroke-width: 2.0;"/><text fill="#000000" font-family="sans-serif" font-size="14" lengthAdjust="spacingAndGlyphs" textLength="98" x="726" y="3164.9707">ムーラン・ロゼ</text><ellipse cx="778" cy="3178.0469" fill="#FEFECE" filter="url(#f1djkb0yq70or8)" rx="8" ry="8" style="stroke: #A80036; stroke-width: 2.0;"/><path d="M778,3186.0469 L778,3213.0469 M765,3194.0469 L791,3194.0469 M778,3213.0469 L765,3228.0469 M778,3213.0469 L791,3228.0469 " fill="none" filter="url(#f1djkb0yq70or8)" style="stroke: #A80036; stroke-width: 2.0;"/><text fill="#000000" font-family="sans-serif" font-size="14" lengthAdjust="spacingAndGlyphs" textLength="42" x="934" y="105.8848">真下悟</text><ellipse cx="958" cy="34.3516" fill="#FEFECE" filter="url(#f1djkb0yq70or8)" rx="8" ry="8" style="stroke: #A80036; stroke-width: 2.0;"/><path d="M958,42.3516 L958,69.3516 M945,50.3516 L971,50.3516 M958,69.3516 L945,84.3516 M958,69.3516 L971,84.3516 " fill="none" filter="url(#f1djkb0yq70or8)" style="stroke: #A80036; stroke-width: 2.0;"/><text fill="#000000" font-family="sans-serif" font-size="14" lengthAdjust="spacingAndGlyphs" textLength="42" x="934" y="3164.9707">真下悟</text><ellipse cx="958" cy="3178.0469" fill="#FEFECE" filter="url(#f1djkb0yq70or8)" rx="8" ry="8" style="stroke: #A80036; stroke-width: 2.0;"/><path d="M958,3186.0469 L958,3213.0469 M945,3194.0469 L971,3194.0469 M958,3213.0469 L945,3228.0469 M958,3213.0469 L971,3228.0469 " fill="none" filter="url(#f1djkb0yq70or8)" style="stroke: #A80036; stroke-width: 2.0;"/><rect fill="#EEEEEE" filter="url(#f1djkb0yq70or8)" height="3" style="stroke: #EEEEEE; stroke-width: 1.0;" width="1004" x="3" y="140.1367"/><line style="stroke: #000000; stroke-width: 1.0;" x1="3" x2="1007" y1="140.1367" y2="140.1367"/><line style="stroke: #000000; stroke-width: 1.0;" x1="3" x2="1007" y1="143.1367" y2="143.1367"/><rect fill="#EEEEEE" filter="url(#f1djkb0yq70or8)" height="24.3516" style="stroke: #000000; stroke-width: 2.0;" width="84" x="463" y="128.9609"/><text fill="#000000" font-family="sans-serif" font-size="13" font-weight="bold" lengthAdjust="spacingAndGlyphs" textLength="70" x="469" y="146.4561">室町時代～</text><polygon fill="#A80036" points="338,181.6641,348,185.6641,338,189.6641,342,185.6641" style="stroke: #A80036; stroke-width: 1.0;"/><line style="stroke: #A80036; stroke-width: 1.0;" x1="3" x2="344" y1="185.6641" y2="185.6641"/><text fill="#000000" font-family="sans-serif" font-size="13" lengthAdjust="spacingAndGlyphs" textLength="260" x="10" y="180.8076">悪霊（シルシの長）封印の最初の生贄となる</text><line style="stroke: #A80036; stroke-width: 1.0;" x1="350" x2="392" y1="232.3672" y2="232.3672"/><line style="stroke: #A80036; stroke-width: 1.0;" x1="392" x2="392" y1="232.3672" y2="245.3672"/><line style="stroke: #A80036; stroke-width: 1.0;" x1="351" x2="392" y1="245.3672" y2="245.3672"/><polygon fill="#A80036" points="361,241.3672,351,245.3672,361,249.3672,357,245.3672" style="stroke: #A80036; stroke-width: 1.0;"/><text fill="#000000" font-family="sans-serif" font-size="13" lengthAdjust="spacingAndGlyphs" textLength="143" x="357" y="211.1592">悪霊の封印が弱まる度に</text><text fill="#000000" font-family="sans-serif" font-size="13" lengthAdjust="spacingAndGlyphs" textLength="104" x="357" y="227.5107">生贄が捧げられる</text><line style="stroke: #A80036; stroke-width: 1.0;" x1="350" x2="392" y1="308.4219" y2="308.4219"/><line style="stroke: #A80036; stroke-width: 1.0;" x1="392" x2="392" y1="308.4219" y2="321.4219"/><line style="stroke: #A80036; stroke-width: 1.0;" x1="351" x2="392" y1="321.4219" y2="321.4219"/><polygon fill="#A80036" points="361,317.4219,351,321.4219,361,325.4219,357,321.4219" style="stroke: #A80036; stroke-width: 1.0;"/><text fill="#000000" font-family="sans-serif" font-size="13" lengthAdjust="spacingAndGlyphs" textLength="182" x="357" y="270.8623">九条家の手で作られた人形に、</text><text fill="#000000" font-family="sans-serif" font-size="13" lengthAdjust="spacingAndGlyphs" textLength="182" x="357" y="287.2139">これまでの生贄の魂を込めて、</text><text fill="#000000" font-family="sans-serif" font-size="13" lengthAdjust="spacingAndGlyphs" textLength="78" x="357" y="303.5654">悪霊を封じる</text><text fill="#000000" font-family="sans-serif" font-size="11" lengthAdjust="spacingAndGlyphs" textLength="80" x="491.5" y="354.8408">500～600年経過</text><rect fill="#EEEEEE" filter="url(#f1djkb0yq70or8)" height="3" style="stroke: #EEEEEE; stroke-width: 1.0;" width="1004" x="3" y="392.4336"/><line style="stroke: #000000; stroke-width: 1.0;" x1="3" x2="1007" y1="392.4336" y2="392.4336"/><line style="stroke: #000000; stroke-width: 1.0;" x1="3" x2="1007" y1="395.4336" y2="395.4336"/><rect fill="#EEEEEE" filter="url(#f1djkb0yq70or8)" height="24.3516" style="stroke: #000000; stroke-width: 2.0;" width="116" x="447" y="381.2578"/><text fill="#000000" font-family="sans-serif" font-size="13" font-weight="bold" lengthAdjust="spacingAndGlyphs" textLength="102" x="453" y="398.7529">九条正宗 幼少期</text><polygon fill="#A80036" points="338,433.9609,348,437.9609,338,441.9609,342,437.9609" style="stroke: #A80036; stroke-width: 1.0;"/><line style="stroke: #A80036; stroke-width: 1.0;" x1="105" x2="344" y1="437.9609" y2="437.9609"/><text fill="#000000" font-family="sans-serif" font-size="13" lengthAdjust="spacingAndGlyphs" textLength="182" x="112" y="433.1045">九条館の開かずの扉の先で発見</text><text fill="#000000" font-family="sans-serif" font-size="11" lengthAdjust="spacingAndGlyphs" textLength="44" x="509.5" y="471.3799">数十年後</text><rect fill="#EEEEEE" filter="url(#f1djkb0yq70or8)" height="3" style="stroke: #EEEEEE; stroke-width: 1.0;" width="1004" x="3" y="508.9727"/><line style="stroke: #000000; stroke-width: 1.0;" x1="3" x2="1007" y1="508.9727" y2="508.9727"/><line style="stroke: #000000; stroke-width: 1.0;" x1="3" x2="1007" y1="511.9727" y2="511.9727"/><rect fill="#EEEEEE" filter="url(#f1djkb0yq70or8)" height="24.3516" style="stroke: #000000; stroke-width: 2.0;" width="56" x="477" y="497.7969"/><text fill="#000000" font-family="sans-serif" font-size="13" font-weight="bold" lengthAdjust="spacingAndGlyphs" textLength="42" x="483" y="515.292">前日譚</text><polygon fill="#A80036" points="338,550.5,348,554.5,338,558.5,342,554.5" style="stroke: #A80036; stroke-width: 1.0;"/><line style="stroke: #A80036; stroke-width: 1.0;" x1="105" x2="344" y1="554.5" y2="554.5"/><text fill="#000000" font-family="sans-serif" font-size="13" lengthAdjust="spacingAndGlyphs" textLength="182" x="112" y="549.6436">メリイの存在とその意味を知る</text><polygon fill="#A80036" points="766,580.8516,776,584.8516,766,588.8516,770,584.8516" style="stroke: #A80036; stroke-width: 1.0;"/><line style="stroke: #A80036; stroke-width: 1.0;" x1="546" x2="772" y1="584.8516" y2="584.8516"/><text fill="#000000" font-family="sans-serif" font-size="13" lengthAdjust="spacingAndGlyphs" textLength="195" x="553" y="579.9951">人形工房へ正宗が行くことを連絡</text><polygon fill="#A80036" points="766,611.2031,776,615.2031,766,619.2031,770,615.2031" style="stroke: #A80036; stroke-width: 1.0;"/><line style="stroke: #A80036; stroke-width: 1.0;" x1="105" x2="772" y1="615.2031" y2="615.2031"/><text fill="#000000" font-family="sans-serif" font-size="13" lengthAdjust="spacingAndGlyphs" textLength="130" x="112" y="610.3467">人形技術の調査に赴く</text><polygon fill="#A80036" points="116,641.5547,106,645.5547,116,649.5547,112,645.5547" style="stroke: #A80036; stroke-width: 1.0;"/><line style="stroke: #A80036; stroke-width: 1.0; stroke-dasharray: 2.0,2.0;" x1="110" x2="777" y1="645.5547" y2="645.5547"/><text fill="#000000" font-family="sans-serif" font-size="13" lengthAdjust="spacingAndGlyphs" textLength="117" x="122" y="640.6982">何も発見できず帰国</text><polygon fill="#A80036" points="116,688.2578,106,692.2578,116,696.2578,112,692.2578" style="stroke: #A80036; stroke-width: 1.0;"/><line style="stroke: #A80036; stroke-width: 1.0;" x1="110" x2="777" y1="692.2578" y2="692.2578"/><text fill="#000000" font-family="sans-serif" font-size="13" lengthAdjust="spacingAndGlyphs" textLength="91" x="122" y="671.0498">メリイとともに</text><text fill="#000000" font-family="sans-serif" font-size="13" lengthAdjust="spacingAndGlyphs" textLength="104" x="122" y="687.4014">悪霊の破壊を提案</text><polygon fill="#A80036" points="766,718.6094,776,722.6094,766,726.6094,770,722.6094" style="stroke: #A80036; stroke-width: 1.0;"/><line style="stroke: #A80036; stroke-width: 1.0; stroke-dasharray: 2.0,2.0;" x1="105" x2="772" y1="722.6094" y2="722.6094"/><text fill="#000000" font-family="sans-serif" font-size="13" lengthAdjust="spacingAndGlyphs" textLength="26" x="112" y="717.7529">承諾</text><polygon fill="#A80036" points="557,765.3125,547,769.3125,557,773.3125,553,769.3125" style="stroke: #A80036; stroke-width: 1.0;"/><line style="stroke: #A80036; stroke-width: 1.0;" x1="551" x2="777" y1="769.3125" y2="769.3125"/><text fill="#000000" font-family="sans-serif" font-size="13" lengthAdjust="spacingAndGlyphs" textLength="91" x="563" y="748.1045">メリイとともに</text><text fill="#000000" font-family="sans-serif" font-size="13" lengthAdjust="spacingAndGlyphs" textLength="104" x="563" y="764.4561">悪霊の破壊を提案</text><polygon fill="#A80036" points="766,795.6641,776,799.6641,766,803.6641,770,799.6641" style="stroke: #A80036; stroke-width: 1.0;"/><line style="stroke: #A80036; stroke-width: 1.0; stroke-dasharray: 2.0,2.0;" x1="546" x2="772" y1="799.6641" y2="799.6641"/><text fill="#000000" font-family="sans-serif" font-size="13" lengthAdjust="spacingAndGlyphs" textLength="26" x="553" y="794.8076">承諾</text><polygon fill="#A80036" points="116,826.0156,106,830.0156,116,834.0156,112,830.0156" style="stroke: #A80036; stroke-width: 1.0;"/><line style="stroke: #A80036; stroke-width: 1.0;" x1="110" x2="349" y1="830.0156" y2="830.0156"/><text fill="#000000" font-family="sans-serif" font-size="13" lengthAdjust="spacingAndGlyphs" textLength="65" x="122" y="825.1592">コンタクト</text><polygon fill="#A80036" points="338,856.3672,348,860.3672,338,864.3672,342,860.3672" style="stroke: #A80036; stroke-width: 1.0;"/><line style="stroke: #A80036; stroke-width: 1.0; stroke-dasharray: 2.0,2.0;" x1="105" x2="344" y1="860.3672" y2="860.3672"/><text fill="#000000" font-family="sans-serif" font-size="13" lengthAdjust="spacingAndGlyphs" textLength="130" x="112" y="855.5107">メリイと念持仏を発掘</text><polygon fill="#A80036" points="338,903.0703,348,907.0703,338,911.0703,342,907.0703" style="stroke: #A80036; stroke-width: 1.0;"/><line style="stroke: #A80036; stroke-width: 1.0;" x1="105" x2="344" y1="907.0703" y2="907.0703"/><text fill="#000000" font-family="sans-serif" font-size="13" lengthAdjust="spacingAndGlyphs" textLength="156" x="112" y="885.8623">ロゼとの約束を反故にし、</text><text fill="#000000" font-family="sans-serif" font-size="13" lengthAdjust="spacingAndGlyphs" textLength="104" x="112" y="902.2139">念持仏を取り出す</text><line style="stroke: #A80036; stroke-width: 1.0;" x1="350" x2="392" y1="937.4219" y2="937.4219"/><line style="stroke: #A80036; stroke-width: 1.0;" x1="392" x2="392" y1="937.4219" y2="950.4219"/><line style="stroke: #A80036; stroke-width: 1.0;" x1="351" x2="392" y1="950.4219" y2="950.4219"/><polygon fill="#A80036" points="361,946.4219,351,950.4219,361,954.4219,357,950.4219" style="stroke: #A80036; stroke-width: 1.0;"/><text fill="#000000" font-family="sans-serif" font-size="13" lengthAdjust="spacingAndGlyphs" textLength="91" x="357" y="932.5654">怪異化前に覚醒</text><polygon fill="#A80036" points="116,976.7734,106,980.7734,116,984.7734,112,980.7734" style="stroke: #A80036; stroke-width: 1.0;"/><line style="stroke: #A80036; stroke-width: 1.0; stroke-dasharray: 2.0,2.0;" x1="110" x2="349" y1="980.7734" y2="980.7734"/><text fill="#000000" font-family="sans-serif" font-size="13" lengthAdjust="spacingAndGlyphs" textLength="221" x="122" y="975.917">悪霊（シルシの長）の封印を肩代わり</text><line style="stroke: #A80036; stroke-width: 1.0;" x1="105" x2="147" y1="1027.4766" y2="1027.4766"/><line style="stroke: #A80036; stroke-width: 1.0;" x1="147" x2="147" y1="1027.4766" y2="1040.4766"/><line style="stroke: #A80036; stroke-width: 1.0;" x1="106" x2="147" y1="1040.4766" y2="1040.4766"/><polygon fill="#A80036" points="116,1036.4766,106,1040.4766,116,1044.4766,112,1040.4766" style="stroke: #A80036; stroke-width: 1.0;"/><text fill="#000000" font-family="sans-serif" font-size="13" lengthAdjust="spacingAndGlyphs" textLength="130" x="112" y="1006.2686">メリイを犠牲にしない</text><text fill="#000000" font-family="sans-serif" font-size="13" lengthAdjust="spacingAndGlyphs" textLength="117" x="112" y="1022.6201">悪霊の浄化を試みる</text><polygon fill="#A80036" points="116,1083.1797,106,1087.1797,116,1091.1797,112,1087.1797" style="stroke: #A80036; stroke-width: 1.0;"/><line style="stroke: #A80036; stroke-width: 1.0;" x1="110" x2="545" y1="1087.1797" y2="1087.1797"/><text fill="#000000" font-family="sans-serif" font-size="13" lengthAdjust="spacingAndGlyphs" textLength="247" x="122" y="1065.9717">メリイから念持仏を取り出したことを知る</text><text fill="#000000" font-family="sans-serif" font-size="13" lengthAdjust="spacingAndGlyphs" textLength="39" x="122" y="1082.3232">→忠告</text><polygon fill="#A80036" points="534,1113.5313,544,1117.5313,534,1121.5313,538,1117.5313" style="stroke: #A80036; stroke-width: 1.0;"/><line style="stroke: #A80036; stroke-width: 1.0; stroke-dasharray: 2.0,2.0;" x1="105" x2="540" y1="1117.5313" y2="1117.5313"/><text fill="#000000" font-family="sans-serif" font-size="13" lengthAdjust="spacingAndGlyphs" textLength="65" x="112" y="1112.6748">忠告を無視</text><polygon fill="#A80036" points="557,1160.2344,547,1164.2344,557,1168.2344,553,1164.2344" style="stroke: #A80036; stroke-width: 1.0;"/><line style="stroke: #A80036; stroke-width: 1.0;" x1="551" x2="777" y1="1164.2344" y2="1164.2344"/><text fill="#000000" font-family="sans-serif" font-size="13" lengthAdjust="spacingAndGlyphs" textLength="130" x="563" y="1143.0264">メリイ破壊のため来日</text><text fill="#000000" font-family="sans-serif" font-size="13" lengthAdjust="spacingAndGlyphs" textLength="208" x="563" y="1159.3779">→念持仏が取り出されたことを知る</text><polygon fill="#A80036" points="361,1190.5859,351,1194.5859,361,1198.5859,357,1194.5859" style="stroke: #A80036; stroke-width: 1.0;"/><line style="stroke: #A80036; stroke-width: 1.0;" x1="355" x2="777" y1="1194.5859" y2="1194.5859"/><text fill="#000000" font-family="sans-serif" font-size="13" lengthAdjust="spacingAndGlyphs" textLength="208" x="367" y="1189.7295">正宗に逆さ呪いをかけることを提案</text><polygon fill="#A80036" points="766,1220.9375,776,1224.9375,766,1228.9375,770,1224.9375" style="stroke: #A80036; stroke-width: 1.0;"/><line style="stroke: #A80036; stroke-width: 1.0; stroke-dasharray: 2.0,2.0;" x1="350" x2="772" y1="1224.9375" y2="1224.9375"/><text fill="#000000" font-family="sans-serif" font-size="13" lengthAdjust="spacingAndGlyphs" textLength="26" x="357" y="1220.0811">承諾</text><polygon fill="#A80036" points="116,1251.2891,106,1255.2891,116,1259.2891,112,1255.2891" style="stroke: #A80036; stroke-width: 1.0;"/><line style="stroke: #A80036; stroke-width: 1.0;" x1="110" x2="349" y1="1255.2891" y2="1255.2891"/><text fill="#000000" font-family="sans-serif" font-size="13" lengthAdjust="spacingAndGlyphs" textLength="182" x="122" y="1250.4326">逆さ呪い（青いシルシ）を刻む</text><polygon fill="#A80036" points="766,1297.9922,776,1301.9922,766,1305.9922,770,1301.9922" style="stroke: #A80036; stroke-width: 1.0;"/><line style="stroke: #A80036; stroke-width: 1.0;" x1="546" x2="772" y1="1301.9922" y2="1301.9922"/><text fill="#000000" font-family="sans-serif" font-size="13" lengthAdjust="spacingAndGlyphs" textLength="156" x="553" y="1280.7842">他の手段を模索するため、</text><text fill="#000000" font-family="sans-serif" font-size="13" lengthAdjust="spacingAndGlyphs" textLength="156" x="553" y="1297.1357">ロゼ、九条館を離れて帰国</text><line style="stroke: #A80036; stroke-width: 1.0;" x1="105" x2="147" y1="1332.3438" y2="1332.3438"/><line style="stroke: #A80036; stroke-width: 1.0;" x1="147" x2="147" y1="1332.3438" y2="1345.3438"/><line style="stroke: #A80036; stroke-width: 1.0;" x1="106" x2="147" y1="1345.3438" y2="1345.3438"/><polygon fill="#A80036" points="116,1341.3438,106,1345.3438,116,1349.3438,112,1345.3438" style="stroke: #A80036; stroke-width: 1.0;"/><text fill="#000000" font-family="sans-serif" font-size="13" lengthAdjust="spacingAndGlyphs" textLength="169" x="112" y="1327.4873">マンホール通りで念持仏紛失</text><rect fill="#EEEEEE" filter="url(#f1djkb0yq70or8)" height="3" style="stroke: #EEEEEE; stroke-width: 1.0;" width="1004" x="3" y="1374.5195"/><line style="stroke: #000000; stroke-width: 1.0;" x1="3" x2="1007" y1="1374.5195" y2="1374.5195"/><line style="stroke: #000000; stroke-width: 1.0;" x1="3" x2="1007" y1="1377.5195" y2="1377.5195"/><rect fill="#EEEEEE" filter="url(#f1djkb0yq70or8)" height="24.3516" style="stroke: #000000; stroke-width: 2.0;" width="56" x="477" y="1363.3438"/><text fill="#000000" font-family="sans-serif" font-size="13" font-weight="bold" lengthAdjust="spacingAndGlyphs" textLength="42" x="483" y="1380.8389">第一章</text><line style="stroke: #A80036; stroke-width: 1.0;" x1="105" x2="147" y1="1420.0469" y2="1420.0469"/><line style="stroke: #A80036; stroke-width: 1.0;" x1="147" x2="147" y1="1420.0469" y2="1433.0469"/><line style="stroke: #A80036; stroke-width: 1.0;" x1="106" x2="147" y1="1433.0469" y2="1433.0469"/><polygon fill="#A80036" points="116,1429.0469,106,1433.0469,116,1437.0469,112,1433.0469" style="stroke: #A80036; stroke-width: 1.0;"/><text fill="#000000" font-family="sans-serif" font-size="13" lengthAdjust="spacingAndGlyphs" textLength="130" x="112" y="1415.1904">シルシの長覚醒の兆し</text><polygon fill="#A80036" points="116,1475.75,106,1479.75,116,1483.75,112,1479.75" style="stroke: #A80036; stroke-width: 1.0;"/><line style="stroke: #A80036; stroke-width: 1.0;" x1="110" x2="349" y1="1479.75" y2="1479.75"/><text fill="#000000" font-family="sans-serif" font-size="13" lengthAdjust="spacingAndGlyphs" textLength="104" x="122" y="1458.542">青いシルシの力で</text><text fill="#000000" font-family="sans-serif" font-size="13" lengthAdjust="spacingAndGlyphs" textLength="130" x="122" y="1474.8936">九条正宗の記憶を封印</text><line style="stroke: #A80036; stroke-width: 1.0;" x1="546" x2="588" y1="1510.1016" y2="1510.1016"/><line style="stroke: #A80036; stroke-width: 1.0;" x1="588" x2="588" y1="1510.1016" y2="1523.1016"/><line style="stroke: #A80036; stroke-width: 1.0;" x1="547" x2="588" y1="1523.1016" y2="1523.1016"/><polygon fill="#A80036" points="557,1519.1016,547,1523.1016,557,1527.1016,553,1523.1016" style="stroke: #A80036; stroke-width: 1.0;"/><text fill="#000000" font-family="sans-serif" font-size="13" lengthAdjust="spacingAndGlyphs" textLength="91" x="553" y="1505.2451">呪いにより死亡</text><polygon fill="#A80036" points="534,1549.4531,544,1553.4531,534,1557.4531,538,1553.4531" style="stroke: #A80036; stroke-width: 1.0;"/><line style="stroke: #A80036; stroke-width: 1.0;" x1="105" x2="540" y1="1553.4531" y2="1553.4531"/><text fill="#000000" font-family="sans-serif" font-size="13" lengthAdjust="spacingAndGlyphs" textLength="104" x="112" y="1548.5967">九条館で死体発見</text><polygon fill="#A80036" points="116,1579.8047,106,1583.8047,116,1587.8047,112,1583.8047" style="stroke: #A80036; stroke-width: 1.0;"/><polygon fill="#A80036" points="338,1579.8047,348,1583.8047,338,1587.8047,342,1583.8047" style="stroke: #A80036; stroke-width: 1.0;"/><line style="stroke: #A80036; stroke-width: 1.0;" x1="110" x2="344" y1="1583.8047" y2="1583.8047"/><text fill="#000000" font-family="sans-serif" font-size="13" lengthAdjust="spacingAndGlyphs" textLength="182" x="122" y="1578.9482">九条館で（八敷として）初対面</text><polygon fill="#A80036" points="116,1610.1563,106,1614.1563,116,1618.1563,112,1614.1563" style="stroke: #A80036; stroke-width: 1.0;"/><line style="stroke: #A80036; stroke-width: 1.0;" x1="110" x2="349" y1="1614.1563" y2="1614.1563"/><text fill="#000000" font-family="sans-serif" font-size="13" lengthAdjust="spacingAndGlyphs" textLength="143" x="122" y="1609.2998">怪異退治（浄化）を提案</text><polygon fill="#A80036" points="338,1640.5078,348,1644.5078,338,1648.5078,342,1644.5078" style="stroke: #A80036; stroke-width: 1.0;"/><line style="stroke: #A80036; stroke-width: 1.0; stroke-dasharray: 2.0,2.0;" x1="105" x2="344" y1="1644.5078" y2="1644.5078"/><text fill="#000000" font-family="sans-serif" font-size="13" lengthAdjust="spacingAndGlyphs" textLength="26" x="112" y="1639.6514">承諾</text><polygon fill="#A80036" points="946,1670.8594,956,1674.8594,946,1678.8594,950,1674.8594" style="stroke: #A80036; stroke-width: 1.0;"/><line style="stroke: #A80036; stroke-width: 1.0;" x1="778" x2="952" y1="1674.8594" y2="1674.8594"/><text fill="#000000" font-family="sans-serif" font-size="13" lengthAdjust="spacingAndGlyphs" textLength="152" x="785" y="1670.0029">H小学校の怪異調査を指示</text><polygon fill="#A80036" points="116,1701.2109,106,1705.2109,116,1709.2109,112,1705.2109" style="stroke: #A80036; stroke-width: 1.0;"/><polygon fill="#A80036" points="946,1701.2109,956,1705.2109,946,1709.2109,950,1705.2109" style="stroke: #A80036; stroke-width: 1.0;"/><line style="stroke: #A80036; stroke-width: 1.0;" x1="110" x2="952" y1="1705.2109" y2="1705.2109"/><text fill="#000000" font-family="sans-serif" font-size="13" lengthAdjust="spacingAndGlyphs" textLength="87" x="122" y="1700.3545">H小学校で遭遇</text><polygon fill="#A80036" points="116,1731.5625,106,1735.5625,116,1739.5625,112,1735.5625" style="stroke: #A80036; stroke-width: 1.0;"/><line style="stroke: #A80036; stroke-width: 1.0;" x1="110" x2="957" y1="1735.5625" y2="1735.5625"/><text fill="#000000" font-family="sans-serif" font-size="13" lengthAdjust="spacingAndGlyphs" textLength="247" x="122" y="1730.7061">花彦くん戦で、八敷に何かあることを察知</text><polygon fill="#A80036" points="116,1794.6172,106,1798.6172,116,1802.6172,112,1798.6172" style="stroke: #A80036; stroke-width: 1.0;"/><line style="stroke: #A80036; stroke-width: 1.0;" x1="110" x2="957" y1="1798.6172" y2="1798.6172"/><text fill="#000000" font-family="sans-serif" font-size="13" lengthAdjust="spacingAndGlyphs" textLength="65" x="122" y="1761.0576">黄金銃発砲</text><text fill="#000000" font-family="sans-serif" font-size="13" lengthAdjust="spacingAndGlyphs" textLength="104" x="122" y="1777.4092">→高い霊格を確認</text><text fill="#000000" font-family="sans-serif" font-size="13" lengthAdjust="spacingAndGlyphs" textLength="143" x="122" y="1793.7607">→覚醒が見られず様子見</text><polygon fill="#A80036" points="789,1824.9688,779,1828.9688,789,1832.9688,785,1828.9688" style="stroke: #A80036; stroke-width: 1.0;"/><line style="stroke: #A80036; stroke-width: 1.0;" x1="783" x2="957" y1="1828.9688" y2="1828.9688"/><text fill="#000000" font-family="sans-serif" font-size="13" lengthAdjust="spacingAndGlyphs" textLength="117" x="795" y="1824.1123">九条サヤの死を報告</text><polygon fill="#A80036" points="557,1855.3203,547,1859.3203,557,1863.3203,553,1859.3203" style="stroke: #A80036; stroke-width: 1.0;"/><line style="stroke: #A80036; stroke-width: 1.0;" x1="551" x2="777" y1="1859.3203" y2="1859.3203"/><text fill="#000000" font-family="sans-serif" font-size="13" lengthAdjust="spacingAndGlyphs" textLength="39" x="563" y="1854.4639">再来日</text><rect fill="#EEEEEE" filter="url(#f1djkb0yq70or8)" height="3" style="stroke: #EEEEEE; stroke-width: 1.0;" width="1004" x="3" y="1888.4961"/><line style="stroke: #000000; stroke-width: 1.0;" x1="3" x2="1007" y1="1888.4961" y2="1888.4961"/><line style="stroke: #000000; stroke-width: 1.0;" x1="3" x2="1007" y1="1891.4961" y2="1891.4961"/><rect fill="#EEEEEE" filter="url(#f1djkb0yq70or8)" height="24.3516" style="stroke: #000000; stroke-width: 2.0;" width="56" x="477" y="1877.3203"/><text fill="#000000" font-family="sans-serif" font-size="13" font-weight="bold" lengthAdjust="spacingAndGlyphs" textLength="42" x="483" y="1894.8154">第二章</text><polygon fill="#A80036" points="116,1930.0234,106,1934.0234,116,1938.0234,112,1934.0234" style="stroke: #A80036; stroke-width: 1.0;"/><line style="stroke: #A80036; stroke-width: 1.0;" x1="110" x2="957" y1="1934.0234" y2="1934.0234"/><text fill="#000000" font-family="sans-serif" font-size="13" lengthAdjust="spacingAndGlyphs" textLength="143" x="122" y="1929.167">森のシミ男の調査を提案</text><polygon fill="#A80036" points="946,1960.375,956,1964.375,946,1968.375,950,1964.375" style="stroke: #A80036; stroke-width: 1.0;"/><line style="stroke: #A80036; stroke-width: 1.0; stroke-dasharray: 2.0,2.0;" x1="105" x2="952" y1="1964.375" y2="1964.375"/><text fill="#000000" font-family="sans-serif" font-size="13" lengthAdjust="spacingAndGlyphs" textLength="26" x="112" y="1959.5186">承諾</text><polygon fill="#A80036" points="116,1990.7266,106,1994.7266,116,1998.7266,112,1994.7266" style="stroke: #A80036; stroke-width: 1.0;"/><polygon fill="#A80036" points="946,1990.7266,956,1994.7266,946,1998.7266,950,1994.7266" style="stroke: #A80036; stroke-width: 1.0;"/><line style="stroke: #A80036; stroke-width: 1.0;" x1="110" x2="952" y1="1994.7266" y2="1994.7266"/><text fill="#000000" font-family="sans-serif" font-size="13" lengthAdjust="spacingAndGlyphs" textLength="104" x="122" y="1989.8701">森のシミ男を調査</text><polygon fill="#A80036" points="116,2021.0781,106,2025.0781,116,2029.0781,112,2025.0781" style="stroke: #A80036; stroke-width: 1.0;"/><line style="stroke: #A80036; stroke-width: 1.0;" x1="110" x2="349" y1="2025.0781" y2="2025.0781"/><text fill="#000000" font-family="sans-serif" font-size="13" lengthAdjust="spacingAndGlyphs" textLength="156" x="122" y="2020.2217">くちゃら花嫁の調査を提案</text><polygon fill="#A80036" points="338,2051.4297,348,2055.4297,338,2059.4297,342,2055.4297" style="stroke: #A80036; stroke-width: 1.0;"/><line style="stroke: #A80036; stroke-width: 1.0; stroke-dasharray: 2.0,2.0;" x1="105" x2="344" y1="2055.4297" y2="2055.4297"/><text fill="#000000" font-family="sans-serif" font-size="13" lengthAdjust="spacingAndGlyphs" textLength="26" x="112" y="2050.5732">承諾</text><polygon fill="#A80036" points="789,2081.7813,779,2085.7813,789,2089.7813,785,2085.7813" style="stroke: #A80036; stroke-width: 1.0;"/><line style="stroke: #A80036; stroke-width: 1.0;" x1="783" x2="957" y1="2085.7813" y2="2085.7813"/><text fill="#000000" font-family="sans-serif" font-size="13" lengthAdjust="spacingAndGlyphs" textLength="52" x="795" y="2080.9248">定時報告</text><polygon fill="#A80036" points="946,2112.1328,956,2116.1328,946,2120.1328,950,2116.1328" style="stroke: #A80036; stroke-width: 1.0;"/><line style="stroke: #A80036; stroke-width: 1.0;" x1="778" x2="952" y1="2116.1328" y2="2116.1328"/><text fill="#000000" font-family="sans-serif" font-size="13" lengthAdjust="spacingAndGlyphs" textLength="65" x="785" y="2111.2764">撤退を提案</text><polygon fill="#A80036" points="789,2142.4844,779,2146.4844,789,2150.4844,785,2146.4844" style="stroke: #A80036; stroke-width: 1.0;"/><line style="stroke: #A80036; stroke-width: 1.0; stroke-dasharray: 2.0,2.0;" x1="783" x2="957" y1="2146.4844" y2="2146.4844"/><text fill="#000000" font-family="sans-serif" font-size="13" lengthAdjust="spacingAndGlyphs" textLength="26" x="795" y="2141.6279">拒否</text><polygon fill="#A80036" points="116,2172.8359,106,2176.8359,116,2180.8359,112,2176.8359" style="stroke: #A80036; stroke-width: 1.0;"/><line style="stroke: #A80036; stroke-width: 1.0;" x1="110" x2="957" y1="2176.8359" y2="2176.8359"/><text fill="#000000" font-family="sans-serif" font-size="13" lengthAdjust="spacingAndGlyphs" textLength="104" x="122" y="2171.9795">再度、黄金銃発砲</text><polygon fill="#A80036" points="946,2203.1875,956,2207.1875,946,2211.1875,950,2207.1875" style="stroke: #A80036; stroke-width: 1.0;"/><line style="stroke: #A80036; stroke-width: 1.0; stroke-dasharray: 2.0,2.0;" x1="105" x2="952" y1="2207.1875" y2="2207.1875"/><text fill="#000000" font-family="sans-serif" font-size="13" lengthAdjust="spacingAndGlyphs" textLength="195" x="112" y="2202.3311">シルシの長の呪い発動→真下死亡</text><polygon fill="#A80036" points="116,2233.5391,106,2237.5391,116,2241.5391,112,2237.5391" style="stroke: #A80036; stroke-width: 1.0;"/><polygon fill="#A80036" points="766,2233.5391,776,2237.5391,766,2241.5391,770,2237.5391" style="stroke: #A80036; stroke-width: 1.0;"/><line style="stroke: #A80036; stroke-width: 1.0;" x1="110" x2="772" y1="2237.5391" y2="2237.5391"/><text fill="#000000" font-family="sans-serif" font-size="13" lengthAdjust="spacingAndGlyphs" textLength="78" x="122" y="2232.6826">電話にて会話</text><polygon fill="#A80036" points="116,2263.8906,106,2267.8906,116,2271.8906,112,2267.8906" style="stroke: #A80036; stroke-width: 1.0;"/><line style="stroke: #A80036; stroke-width: 1.0;" x1="110" x2="777" y1="2267.8906" y2="2267.8906"/><text fill="#000000" font-family="sans-serif" font-size="13" lengthAdjust="spacingAndGlyphs" textLength="52" x="122" y="2263.0342">協力要請</text><polygon fill="#A80036" points="766,2294.2422,776,2298.2422,766,2302.2422,770,2298.2422" style="stroke: #A80036; stroke-width: 1.0;"/><line style="stroke: #A80036; stroke-width: 1.0; stroke-dasharray: 2.0,2.0;" x1="105" x2="772" y1="2298.2422" y2="2298.2422"/><text fill="#000000" font-family="sans-serif" font-size="13" lengthAdjust="spacingAndGlyphs" textLength="26" x="112" y="2293.3857">承諾</text><rect fill="#EEEEEE" filter="url(#f1djkb0yq70or8)" height="3" style="stroke: #EEEEEE; stroke-width: 1.0;" width="1004" x="3" y="2327.418"/><line style="stroke: #000000; stroke-width: 1.0;" x1="3" x2="1007" y1="2327.418" y2="2327.418"/><line style="stroke: #000000; stroke-width: 1.0;" x1="3" x2="1007" y1="2330.418" y2="2330.418"/><rect fill="#EEEEEE" filter="url(#f1djkb0yq70or8)" height="24.3516" style="stroke: #000000; stroke-width: 2.0;" width="56" x="477" y="2316.2422"/><text fill="#000000" font-family="sans-serif" font-size="13" font-weight="bold" lengthAdjust="spacingAndGlyphs" textLength="42" x="483" y="2333.7373">第三章</text><polygon fill="#A80036" points="116,2368.9453,106,2372.9453,116,2376.9453,112,2372.9453" style="stroke: #A80036; stroke-width: 1.0;"/><line style="stroke: #A80036; stroke-width: 1.0;" x1="110" x2="777" y1="2372.9453" y2="2372.9453"/><text fill="#000000" font-family="sans-serif" font-size="13" lengthAdjust="spacingAndGlyphs" textLength="143" x="122" y="2368.0889">くちゃら花嫁の資料提供</text><polygon fill="#A80036" points="116,2415.6484,106,2419.6484,116,2423.6484,112,2419.6484" style="stroke: #A80036; stroke-width: 1.0;"/><line style="stroke: #A80036; stroke-width: 1.0;" x1="110" x2="349" y1="2419.6484" y2="2419.6484"/><text fill="#000000" font-family="sans-serif" font-size="13" lengthAdjust="spacingAndGlyphs" textLength="117" x="122" y="2398.4404">シルシの長の覚醒が</text><text fill="#000000" font-family="sans-serif" font-size="13" lengthAdjust="spacingAndGlyphs" textLength="91" x="122" y="2414.792">近いことを察知</text><polygon fill="#A80036" points="116,2446,106,2450,116,2454,112,2450" style="stroke: #A80036; stroke-width: 1.0;"/><line style="stroke: #A80036; stroke-width: 1.0;" x1="110" x2="349" y1="2450" y2="2450"/><text fill="#000000" font-family="sans-serif" font-size="13" lengthAdjust="spacingAndGlyphs" textLength="208" x="122" y="2445.1436">くちゃら花嫁の調査同行を申し出る</text><polygon fill="#A80036" points="338,2476.3516,348,2480.3516,338,2484.3516,342,2480.3516" style="stroke: #A80036; stroke-width: 1.0;"/><line style="stroke: #A80036; stroke-width: 1.0; stroke-dasharray: 2.0,2.0;" x1="105" x2="344" y1="2480.3516" y2="2480.3516"/><text fill="#000000" font-family="sans-serif" font-size="13" lengthAdjust="spacingAndGlyphs" textLength="26" x="112" y="2475.4951">承諾</text><polygon fill="#A80036" points="116,2506.7031,106,2510.7031,116,2514.7031,112,2510.7031" style="stroke: #A80036; stroke-width: 1.0;"/><polygon fill="#A80036" points="338,2506.7031,348,2510.7031,338,2514.7031,342,2510.7031" style="stroke: #A80036; stroke-width: 1.0;"/><line style="stroke: #A80036; stroke-width: 1.0;" x1="110" x2="344" y1="2510.7031" y2="2510.7031"/><text fill="#000000" font-family="sans-serif" font-size="13" lengthAdjust="spacingAndGlyphs" textLength="104" x="122" y="2505.8467">ドライブ中の会話</text><polygon fill="#A80036" points="116,2537.0547,106,2541.0547,116,2545.0547,112,2541.0547" style="stroke: #A80036; stroke-width: 1.0;"/><line style="stroke: #A80036; stroke-width: 1.0;" x1="110" x2="349" y1="2541.0547" y2="2541.0547"/><text fill="#000000" font-family="sans-serif" font-size="13" lengthAdjust="spacingAndGlyphs" textLength="169" x="122" y="2536.1982">観音兵の調査同行を申し出る</text><polygon fill="#A80036" points="338,2567.4063,348,2571.4063,338,2575.4063,342,2571.4063" style="stroke: #A80036; stroke-width: 1.0;"/><line style="stroke: #A80036; stroke-width: 1.0; stroke-dasharray: 2.0,2.0;" x1="105" x2="344" y1="2571.4063" y2="2571.4063"/><text fill="#000000" font-family="sans-serif" font-size="13" lengthAdjust="spacingAndGlyphs" textLength="26" x="112" y="2566.5498">拒否</text><polygon fill="#A80036" points="93,2597.7578,103,2601.7578,93,2605.7578,97,2601.7578" style="stroke: #A80036; stroke-width: 1.0;"/><line style="stroke: #A80036; stroke-width: 1.0;" x1="3" x2="99" y1="2601.7578" y2="2601.7578"/><text fill="#000000" font-family="sans-serif" font-size="13" lengthAdjust="spacingAndGlyphs" textLength="78" x="10" y="2596.9014">念持仏が戻る</text><line style="stroke: #A80036; stroke-width: 1.0;" x1="105" x2="147" y1="2632.1094" y2="2632.1094"/><line style="stroke: #A80036; stroke-width: 1.0;" x1="147" x2="147" y1="2632.1094" y2="2645.1094"/><line style="stroke: #A80036; stroke-width: 1.0;" x1="106" x2="147" y1="2645.1094" y2="2645.1094"/><polygon fill="#A80036" points="116,2641.1094,106,2645.1094,116,2649.1094,112,2645.1094" style="stroke: #A80036; stroke-width: 1.0;"/><text fill="#000000" font-family="sans-serif" font-size="13" lengthAdjust="spacingAndGlyphs" textLength="130" x="112" y="2627.2529">シルシの長、完全覚醒</text><rect fill="#EEEEEE" filter="url(#f1djkb0yq70or8)" height="3" style="stroke: #EEEEEE; stroke-width: 1.0;" width="1004" x="3" y="2674.2852"/><line style="stroke: #000000; stroke-width: 1.0;" x1="3" x2="1007" y1="2674.2852" y2="2674.2852"/><line style="stroke: #000000; stroke-width: 1.0;" x1="3" x2="1007" y1="2677.2852" y2="2677.2852"/><rect fill="#EEEEEE" filter="url(#f1djkb0yq70or8)" height="24.3516" style="stroke: #000000; stroke-width: 2.0;" width="56" x="477" y="2663.1094"/><text fill="#000000" font-family="sans-serif" font-size="13" font-weight="bold" lengthAdjust="spacingAndGlyphs" textLength="42" x="483" y="2680.6045">第四章</text><polygon fill="#A80036" points="338,2732.1641,348,2736.1641,338,2740.1641,342,2736.1641" style="stroke: #A80036; stroke-width: 1.0;"/><line style="stroke: #A80036; stroke-width: 1.0;" x1="105" x2="344" y1="2736.1641" y2="2736.1641"/><text fill="#000000" font-family="sans-serif" font-size="13" lengthAdjust="spacingAndGlyphs" textLength="182" x="112" y="2714.9561">念持仏（穢れ）を埋め込むため</text><text fill="#000000" font-family="sans-serif" font-size="13" lengthAdjust="spacingAndGlyphs" textLength="117" x="112" y="2731.3076">九条館に帰還、対峙</text><polygon fill="#A80036" points="116,2762.5156,106,2766.5156,116,2770.5156,112,2766.5156" style="stroke: #A80036; stroke-width: 1.0;"/><line style="stroke: #A80036; stroke-width: 1.0;" x1="110" x2="777" y1="2766.5156" y2="2766.5156"/><text fill="#000000" font-family="sans-serif" font-size="13" lengthAdjust="spacingAndGlyphs" textLength="104" x="122" y="2761.6592">九条館到着、対峙</text><polygon fill="#A80036" points="766,2792.8672,776,2796.8672,766,2800.8672,770,2796.8672" style="stroke: #A80036; stroke-width: 1.0;"/><line style="stroke: #A80036; stroke-width: 1.0;" x1="105" x2="772" y1="2796.8672" y2="2796.8672"/><text fill="#000000" font-family="sans-serif" font-size="13" lengthAdjust="spacingAndGlyphs" textLength="299" x="112" y="2792.0107">力づくで伴侶（百鬼夜行）の一人にしようと試みる</text><polygon fill="#A80036" points="116,2823.2188,106,2827.2188,116,2831.2188,112,2827.2188" style="stroke: #A80036; stroke-width: 1.0;"/><line style="stroke: #A80036; stroke-width: 1.0; stroke-dasharray: 2.0,2.0;" x1="110" x2="777" y1="2827.2188" y2="2827.2188"/><text fill="#000000" font-family="sans-serif" font-size="13" lengthAdjust="spacingAndGlyphs" textLength="26" x="122" y="2822.3623">抵抗</text><polygon fill="#A80036" points="789,2853.5703,779,2857.5703,789,2861.5703,785,2857.5703" style="stroke: #A80036; stroke-width: 1.0;"/><line style="stroke: #A80036; stroke-width: 1.0;" x1="783" x2="957" y1="2857.5703" y2="2857.5703"/><text fill="#000000" font-family="sans-serif" font-size="13" lengthAdjust="spacingAndGlyphs" textLength="156" x="795" y="2852.7139">黄金銃の在り処を知らせる</text><line style="stroke: #A80036; stroke-width: 1.0;" x1="778" x2="820" y1="2904.2734" y2="2904.2734"/><line style="stroke: #A80036; stroke-width: 1.0;" x1="820" x2="820" y1="2904.2734" y2="2917.2734"/><line style="stroke: #A80036; stroke-width: 1.0;" x1="779" x2="820" y1="2917.2734" y2="2917.2734"/><polygon fill="#A80036" points="789,2913.2734,779,2917.2734,789,2921.2734,785,2917.2734" style="stroke: #A80036; stroke-width: 1.0;"/><text fill="#000000" font-family="sans-serif" font-size="13" lengthAdjust="spacingAndGlyphs" textLength="117" x="785" y="2883.0654">シルシの長の前で、</text><text fill="#000000" font-family="sans-serif" font-size="13" lengthAdjust="spacingAndGlyphs" textLength="156" x="785" y="2899.417">黄金銃を使って自殺を自演</text><line style="stroke: #A80036; stroke-width: 1.0;" x1="350" x2="392" y1="2947.625" y2="2947.625"/><line style="stroke: #A80036; stroke-width: 1.0;" x1="392" x2="392" y1="2947.625" y2="2960.625"/><line style="stroke: #A80036; stroke-width: 1.0;" x1="351" x2="392" y1="2960.625" y2="2960.625"/><polygon fill="#A80036" points="361,2956.625,351,2960.625,361,2964.625,357,2960.625" style="stroke: #A80036; stroke-width: 1.0;"/><text fill="#000000" font-family="sans-serif" font-size="13" lengthAdjust="spacingAndGlyphs" textLength="143" x="357" y="2942.7686">シルシの長の破壊を決意</text><polygon fill="#A80036" points="116,3003.3281,106,3007.3281,116,3011.3281,112,3007.3281" style="stroke: #A80036; stroke-width: 1.0;"/><line style="stroke: #A80036; stroke-width: 1.0;" x1="110" x2="349" y1="3007.3281" y2="3007.3281"/><text fill="#000000" font-family="sans-serif" font-size="13" lengthAdjust="spacingAndGlyphs" textLength="156" x="122" y="2986.1201">青いシルシの力を完全開放</text><text fill="#000000" font-family="sans-serif" font-size="13" lengthAdjust="spacingAndGlyphs" textLength="117" x="122" y="3002.4717">→メリイの魂、消滅</text><polygon fill="#A80036" points="116,3050.0313,106,3054.0313,116,3058.0313,112,3054.0313" style="stroke: #A80036; stroke-width: 1.0;"/><line style="stroke: #A80036; stroke-width: 1.0;" x1="110" x2="777" y1="3054.0313" y2="3054.0313"/><text fill="#000000" font-family="sans-serif" font-size="13" lengthAdjust="spacingAndGlyphs" textLength="182" x="122" y="3032.8232">青いシルシの意味を認識させる</text><text fill="#000000" font-family="sans-serif" font-size="13" lengthAdjust="spacingAndGlyphs" textLength="156" x="122" y="3049.1748">→呪い（言霊）の効力発動</text><polygon fill="#A80036" points="116,3129.4375,106,3133.4375,116,3137.4375,112,3133.4375" style="stroke: #A80036; stroke-width: 1.0;"/><line style="stroke: #A80036; stroke-width: 1.0;" x1="110" x2="349" y1="3133.4375" y2="3133.4375"/><text fill="#000000" font-family="sans-serif" font-size="13" lengthAdjust="spacingAndGlyphs" textLength="182" x="122" y="3079.5264">命をかけた青いシルシの力と、</text><text fill="#000000" font-family="sans-serif" font-size="13" lengthAdjust="spacingAndGlyphs" textLength="182" x="122" y="3095.8779">ロゼのサポート、印人の怨念、</text><text fill="#000000" font-family="sans-serif" font-size="13" lengthAdjust="spacingAndGlyphs" textLength="143" x="122" y="3112.2295">八敷（正宗）の執念で、</text><text fill="#000000" font-family="sans-serif" font-size="13" lengthAdjust="spacingAndGlyphs" textLength="117" x="122" y="3128.5811">シルシの長ごと破壊</text><!--
@startuml

actor "九条正宗/八敷一男" as yashiki
actor "メリイ" as mary
actor "九条サヤ" as saya
actor "ムーラン・ロゼ" as rose
actor "真下悟" as mashita

skinparam BoxPadding 20

box "九条館" #AntiqueWhite
participant yashiki
participant mary
participant saya
end box

box "組織" #HoneyDew
participant rose
participant mashita
end box

== 室町時代～==

[-> mary : 悪霊（シルシの長）封印の最初の生贄となる
mary -> mary : 悪霊の封印が弱まる度に\n生贄が捧げられる
mary -> mary : 九条家の手で作られた人形に、\nこれまでの生贄の魂を込めて、\n悪霊を封じる

...500～600年経過...

== 九条正宗 幼少期==

yashiki -> mary : 九条館の開かずの扉の先で発見
...数十年後...

== 前日譚==

yashiki -> mary : メリイの存在とその意味を知る
saya -> rose : 人形工房へ正宗が行くことを連絡
yashiki -> rose : 人形技術の調査に赴く
rose - -> yashiki : 何も発見できず帰国

rose -> yashiki : メリイとともに\n悪霊の破壊を提案
yashiki - -> rose: 承諾

rose -> saya : メリイとともに\n悪霊の破壊を提案
saya - -> rose : 承諾

mary -> yashiki : コンタクト
yashiki - -> mary : メリイと念持仏を発掘
yashiki -> mary : ロゼとの約束を反故にし、\n念持仏を取り出す
mary -> mary : 怪異化前に覚醒
mary - -> yashiki : 悪霊（シルシの長）の封印を肩代わり
yashiki -> yashiki : メリイを犠牲にしない\n悪霊の浄化を試みる

saya -> yashiki : メリイから念持仏を取り出したことを知る\n→忠告
yashiki - -> saya : 忠告を無視

rose -> saya : メリイ破壊のため来日\n→念持仏が取り出されたことを知る
rose -> mary : 正宗に逆さ呪いをかけることを提案
mary - -> rose : 承諾
mary -> yashiki : 逆さ呪い（青いシルシ）を刻む

saya -> rose : 他の手段を模索するため、\nロゼ、九条館を離れて帰国

yashiki -> yashiki : マンホール通りで念持仏紛失

== 第一章==

yashiki -> yashiki : シルシの長覚醒の兆し
mary -> yashiki : 青いシルシの力で\n九条正宗の記憶を封印

saya -> saya : 呪いにより死亡
yashiki -> saya : 九条館で死体発見
yashiki <-> mary : 九条館で（八敷として）初対面
mary -> yashiki : 怪異退治（浄化）を提案
yashiki - -> mary : 承諾

rose -> mashita : H小学校の怪異調査を指示
yashiki <-> mashita : H小学校で遭遇
mashita -> yashiki : 花彦くん戦で、八敷に何かあることを察知

mashita -> yashiki : 黄金銃発砲\n→高い霊格を確認\n→覚醒が見られず様子見

mashita -> rose : 九条サヤの死を報告
rose -> saya : 再来日

== 第二章==

mashita -> yashiki : 森のシミ男の調査を提案
yashiki - -> mashita : 承諾
yashiki <-> mashita : 森のシミ男を調査

mary -> yashiki : くちゃら花嫁の調査を提案
yashiki - -> mary : 承諾

mashita -> rose : 定時報告
rose -> mashita : 撤退を提案
mashita - -> rose : 拒否

mashita -> yashiki : 再度、黄金銃発砲
yashiki - -> mashita : シルシの長の呪い発動→真下死亡

yashiki <-> rose : 電話にて会話
rose -> yashiki : 協力要請
yashiki - -> rose : 承諾

== 第三章==

rose -> yashiki : くちゃら花嫁の資料提供

mary -> yashiki : シルシの長の覚醒が\n近いことを察知
mary -> yashiki : くちゃら花嫁の調査同行を申し出る
yashiki - -> mary : 承諾

yashiki <-> mary : ドライブ中の会話

mary -> yashiki : 観音兵の調査同行を申し出る
yashiki - -> mary : 拒否

[-> yashiki : 念持仏が戻る
yashiki -> yashiki : シルシの長、完全覚醒

== 第四章==

yashiki -> mary : 念持仏（穢れ）を埋め込むため\n九条館に帰還、対峙
rose -> yashiki : 九条館到着、対峙
yashiki -> rose : 力づくで伴侶（百鬼夜行）の一人にしようと試みる
rose - -> yashiki : 抵抗
mashita -> rose : 黄金銃の在り処を知らせる
rose -> rose : シルシの長の前で、\n黄金銃を使って自殺を自演
mary -> mary : シルシの長の破壊を決意
mary -> yashiki : 青いシルシの力を完全開放\n→メリイの魂、消滅
rose -> yashiki : 青いシルシの意味を認識させる\n→呪い（言霊）の効力発動
mary -> yashiki : 命をかけた青いシルシの力と、\nロゼのサポート、印人の怨念、\n八敷（正宗）の執念で、\nシルシの長ごと破壊

@enduml

PlantUML version 1.2019.09(Tue Aug 27 01:19:51 GMT+09:00 2019)
(GPL source distribution)
Java Runtime: Java(TM) SE Runtime Environment
JVM: Java HotSpot(TM) 64-Bit Server VM
Java Version: 1.8.0_231-b11
Operating System: Windows 10
OS Version: 10.0
Default Encoding: MS932
Language: ja
Country: JP
--></g></svg>