<?xml version="1.0" encoding="UTF-8" standalone="no"?><svg xmlns="http://www.w3.org/2000/svg" xmlns:xlink="http://www.w3.org/1999/xlink" contentScriptType="application/ecmascript" contentStyleType="text/css" height="2177px" preserveAspectRatio="none" style="width:951px;height:2177px;" version="1.1" viewBox="0 0 951 2177" width="951px" zoomAndPan="magnify"><defs><filter height="300%" id="fztaxhrpt4r6v" width="300%" x="-1" y="-1"><feGaussianBlur result="blurOut" stdDeviation="2.0"/><feColorMatrix in="blurOut" result="blurOut2" type="matrix" values="0 0 0 0 0 0 0 0 0 0 0 0 0 0 0 0 0 0 .4 0"/><feOffset dx="4.0" dy="4.0" in="blurOut2" result="blurOut3"/><feBlend in="SourceGraphic" in2="blurOut3" mode="normal"/></filter></defs><g><rect fill="#FAEBD7" height="2162.9063" style="stroke: #A80036; stroke-width: 1.0;" width="502" x="24" y="4"/><text fill="#000000" font-family="sans-serif" font-size="13" font-weight="bold" lengthAdjust="spacingAndGlyphs" textLength="42" x="254" y="17.4951">九条館</text><rect fill="#F0FFF0" height="2162.9063" style="stroke: #A80036; stroke-width: 1.0;" width="264" x="654" y="4"/><text fill="#000000" font-family="sans-serif" font-size="13" font-weight="bold" lengthAdjust="spacingAndGlyphs" textLength="28" x="772" y="17.4951">組織</text><line style="stroke: #A80036; stroke-width: 1.0;" x1="89" x2="89" y1="108.9609" y2="193.6641"/><line style="stroke: #A80036; stroke-width: 1.0; stroke-dasharray: 1.0,4.0;" x1="89" x2="89" y1="193.6641" y2="235.5"/><line style="stroke: #A80036; stroke-width: 1.0;" x1="89" x2="89" y1="235.5" y2="2079.2969"/><line style="stroke: #A80036; stroke-width: 1.0;" x1="334" x2="334" y1="108.9609" y2="193.6641"/><line style="stroke: #A80036; stroke-width: 1.0; stroke-dasharray: 1.0,4.0;" x1="334" x2="334" y1="193.6641" y2="235.5"/><line style="stroke: #A80036; stroke-width: 1.0;" x1="334" x2="334" y1="235.5" y2="2079.2969"/><line style="stroke: #A80036; stroke-width: 1.0;" x1="491" x2="491" y1="108.9609" y2="193.6641"/><line style="stroke: #A80036; stroke-width: 1.0; stroke-dasharray: 1.0,4.0;" x1="491" x2="491" y1="193.6641" y2="235.5"/><line style="stroke: #A80036; stroke-width: 1.0;" x1="491" x2="491" y1="235.5" y2="2079.2969"/><line style="stroke: #A80036; stroke-width: 1.0;" x1="710" x2="710" y1="108.9609" y2="193.6641"/><line style="stroke: #A80036; stroke-width: 1.0; stroke-dasharray: 1.0,4.0;" x1="710" x2="710" y1="193.6641" y2="235.5"/><line style="stroke: #A80036; stroke-width: 1.0;" x1="710" x2="710" y1="235.5" y2="2079.2969"/><line style="stroke: #A80036; stroke-width: 1.0;" x1="890" x2="890" y1="108.9609" y2="193.6641"/><line style="stroke: #A80036; stroke-width: 1.0; stroke-dasharray: 1.0,4.0;" x1="890" x2="890" y1="193.6641" y2="235.5"/><line style="stroke: #A80036; stroke-width: 1.0;" x1="890" x2="890" y1="235.5" y2="2079.2969"/><text fill="#000000" font-family="sans-serif" font-size="14" lengthAdjust="spacingAndGlyphs" textLength="116" x="28" y="105.8848">九条正宗/八敷一男</text><ellipse cx="89" cy="34.3516" fill="#FEFECE" filter="url(#fztaxhrpt4r6v)" rx="8" ry="8" style="stroke: #A80036; stroke-width: 2.0;"/><path d="M89,42.3516 L89,69.3516 M76,50.3516 L102,50.3516 M89,69.3516 L76,84.3516 M89,69.3516 L102,84.3516 " fill="none" filter="url(#fztaxhrpt4r6v)" style="stroke: #A80036; stroke-width: 2.0;"/><text fill="#000000" font-family="sans-serif" font-size="14" lengthAdjust="spacingAndGlyphs" textLength="116" x="28" y="2092.8301">九条正宗/八敷一男</text><ellipse cx="89" cy="2105.9063" fill="#FEFECE" filter="url(#fztaxhrpt4r6v)" rx="8" ry="8" style="stroke: #A80036; stroke-width: 2.0;"/><path d="M89,2113.9063 L89,2140.9063 M76,2121.9063 L102,2121.9063 M89,2140.9063 L76,2155.9063 M89,2140.9063 L102,2155.9063 " fill="none" filter="url(#fztaxhrpt4r6v)" style="stroke: #A80036; stroke-width: 2.0;"/><text fill="#000000" font-family="sans-serif" font-size="14" lengthAdjust="spacingAndGlyphs" textLength="42" x="310" y="105.8848">メリイ</text><ellipse cx="334" cy="34.3516" fill="#FEFECE" filter="url(#fztaxhrpt4r6v)" rx="8" ry="8" style="stroke: #A80036; stroke-width: 2.0;"/><path d="M334,42.3516 L334,69.3516 M321,50.3516 L347,50.3516 M334,69.3516 L321,84.3516 M334,69.3516 L347,84.3516 " fill="none" filter="url(#fztaxhrpt4r6v)" style="stroke: #A80036; stroke-width: 2.0;"/><text fill="#000000" font-family="sans-serif" font-size="14" lengthAdjust="spacingAndGlyphs" textLength="42" x="310" y="2092.8301">メリイ</text><ellipse cx="334" cy="2105.9063" fill="#FEFECE" filter="url(#fztaxhrpt4r6v)" rx="8" ry="8" style="stroke: #A80036; stroke-width: 2.0;"/><path d="M334,2113.9063 L334,2140.9063 M321,2121.9063 L347,2121.9063 M334,2140.9063 L321,2155.9063 M334,2140.9063 L347,2155.9063 " fill="none" filter="url(#fztaxhrpt4r6v)" style="stroke: #A80036; stroke-width: 2.0;"/><text fill="#000000" font-family="sans-serif" font-size="14" lengthAdjust="spacingAndGlyphs" textLength="56" x="460" y="105.8848">九条サヤ</text><ellipse cx="491" cy="34.3516" fill="#FEFECE" filter="url(#fztaxhrpt4r6v)" rx="8" ry="8" style="stroke: #A80036; stroke-width: 2.0;"/><path d="M491,42.3516 L491,69.3516 M478,50.3516 L504,50.3516 M491,69.3516 L478,84.3516 M491,69.3516 L504,84.3516 " fill="none" filter="url(#fztaxhrpt4r6v)" style="stroke: #A80036; stroke-width: 2.0;"/><text fill="#000000" font-family="sans-serif" font-size="14" lengthAdjust="spacingAndGlyphs" textLength="56" x="460" y="2092.8301">九条サヤ</text><ellipse cx="491" cy="2105.9063" fill="#FEFECE" filter="url(#fztaxhrpt4r6v)" rx="8" ry="8" style="stroke: #A80036; stroke-width: 2.0;"/><path d="M491,2113.9063 L491,2140.9063 M478,2121.9063 L504,2121.9063 M491,2140.9063 L478,2155.9063 M491,2140.9063 L504,2155.9063 " fill="none" filter="url(#fztaxhrpt4r6v)" style="stroke: #A80036; stroke-width: 2.0;"/><text fill="#000000" font-family="sans-serif" font-size="14" lengthAdjust="spacingAndGlyphs" textLength="98" x="658" y="105.8848">ムーラン・ロゼ</text><ellipse cx="710" cy="34.3516" fill="#FEFECE" filter="url(#fztaxhrpt4r6v)" rx="8" ry="8" style="stroke: #A80036; stroke-width: 2.0;"/><path d="M710,42.3516 L710,69.3516 M697,50.3516 L723,50.3516 M710,69.3516 L697,84.3516 M710,69.3516 L723,84.3516 " fill="none" filter="url(#fztaxhrpt4r6v)" style="stroke: #A80036; stroke-width: 2.0;"/><text fill="#000000" font-family="sans-serif" font-size="14" lengthAdjust="spacingAndGlyphs" textLength="98" x="658" y="2092.8301">ムーラン・ロゼ</text><ellipse cx="710" cy="2105.9063" fill="#FEFECE" filter="url(#fztaxhrpt4r6v)" rx="8" ry="8" style="stroke: #A80036; stroke-width: 2.0;"/><path d="M710,2113.9063 L710,2140.9063 M697,2121.9063 L723,2121.9063 M710,2140.9063 L697,2155.9063 M710,2140.9063 L723,2155.9063 " fill="none" filter="url(#fztaxhrpt4r6v)" style="stroke: #A80036; stroke-width: 2.0;"/><text fill="#000000" font-family="sans-serif" font-size="14" lengthAdjust="spacingAndGlyphs" textLength="42" x="866" y="105.8848">真下悟</text><ellipse cx="890" cy="34.3516" fill="#FEFECE" filter="url(#fztaxhrpt4r6v)" rx="8" ry="8" style="stroke: #A80036; stroke-width: 2.0;"/><path d="M890,42.3516 L890,69.3516 M877,50.3516 L903,50.3516 M890,69.3516 L877,84.3516 M890,69.3516 L903,84.3516 " fill="none" filter="url(#fztaxhrpt4r6v)" style="stroke: #A80036; stroke-width: 2.0;"/><text fill="#000000" font-family="sans-serif" font-size="14" lengthAdjust="spacingAndGlyphs" textLength="42" x="866" y="2092.8301">真下悟</text><ellipse cx="890" cy="2105.9063" fill="#FEFECE" filter="url(#fztaxhrpt4r6v)" rx="8" ry="8" style="stroke: #A80036; stroke-width: 2.0;"/><path d="M890,2113.9063 L890,2140.9063 M877,2121.9063 L903,2121.9063 M890,2140.9063 L877,2155.9063 M890,2140.9063 L903,2155.9063 " fill="none" filter="url(#fztaxhrpt4r6v)" style="stroke: #A80036; stroke-width: 2.0;"/><rect fill="#EEEEEE" filter="url(#fztaxhrpt4r6v)" height="3" style="stroke: #EEEEEE; stroke-width: 1.0;" width="936" x="3" y="140.1367"/><line style="stroke: #000000; stroke-width: 1.0;" x1="3" x2="939" y1="140.1367" y2="140.1367"/><line style="stroke: #000000; stroke-width: 1.0;" x1="3" x2="939" y1="143.1367" y2="143.1367"/><rect fill="#EEEEEE" filter="url(#fztaxhrpt4r6v)" height="24.3516" style="stroke: #000000; stroke-width: 2.0;" width="116" x="413" y="128.9609"/><text fill="#000000" font-family="sans-serif" font-size="13" font-weight="bold" lengthAdjust="spacingAndGlyphs" textLength="102" x="419" y="146.4561">九条正宗 幼少期</text><polygon fill="#A80036" points="322,181.6641,332,185.6641,322,189.6641,326,185.6641" style="stroke: #A80036; stroke-width: 1.0;"/><line style="stroke: #A80036; stroke-width: 1.0;" x1="89" x2="328" y1="185.6641" y2="185.6641"/><text fill="#000000" font-family="sans-serif" font-size="13" lengthAdjust="spacingAndGlyphs" textLength="182" x="96" y="180.8076">九条館の開かずの扉の先で発見</text><text fill="#000000" font-family="sans-serif" font-size="11" lengthAdjust="spacingAndGlyphs" textLength="44" x="467.5" y="219.083">数十年後</text><rect fill="#EEEEEE" filter="url(#fztaxhrpt4r6v)" height="3" style="stroke: #EEEEEE; stroke-width: 1.0;" width="936" x="3" y="256.6758"/><line style="stroke: #000000; stroke-width: 1.0;" x1="3" x2="939" y1="256.6758" y2="256.6758"/><line style="stroke: #000000; stroke-width: 1.0;" x1="3" x2="939" y1="259.6758" y2="259.6758"/><rect fill="#EEEEEE" filter="url(#fztaxhrpt4r6v)" height="24.3516" style="stroke: #000000; stroke-width: 2.0;" width="56" x="443" y="245.5"/><text fill="#000000" font-family="sans-serif" font-size="13" font-weight="bold" lengthAdjust="spacingAndGlyphs" textLength="42" x="449" y="262.9951">前日譚</text><polygon fill="#A80036" points="322,298.2031,332,302.2031,322,306.2031,326,302.2031" style="stroke: #A80036; stroke-width: 1.0;"/><line style="stroke: #A80036; stroke-width: 1.0;" x1="89" x2="328" y1="302.2031" y2="302.2031"/><text fill="#000000" font-family="sans-serif" font-size="13" lengthAdjust="spacingAndGlyphs" textLength="117" x="96" y="297.3467">メリイの存在を確信</text><polygon fill="#A80036" points="698,344.9063,708,348.9063,698,352.9063,702,348.9063" style="stroke: #A80036; stroke-width: 1.0;"/><line style="stroke: #A80036; stroke-width: 1.0;" x1="89" x2="704" y1="348.9063" y2="348.9063"/><text fill="#000000" font-family="sans-serif" font-size="13" lengthAdjust="spacingAndGlyphs" textLength="117" x="96" y="327.6982">メリイを救うため、</text><text fill="#000000" font-family="sans-serif" font-size="13" lengthAdjust="spacingAndGlyphs" textLength="130" x="96" y="344.0498">人形技術の調査に赴く</text><polygon fill="#A80036" points="100,375.2578,90,379.2578,100,383.2578,96,379.2578" style="stroke: #A80036; stroke-width: 1.0;"/><line style="stroke: #A80036; stroke-width: 1.0; stroke-dasharray: 2.0,2.0;" x1="94" x2="709" y1="379.2578" y2="379.2578"/><text fill="#000000" font-family="sans-serif" font-size="13" lengthAdjust="spacingAndGlyphs" textLength="117" x="106" y="374.4014">何も発見できず帰国</text><polygon fill="#A80036" points="698,405.6094,708,409.6094,698,413.6094,702,409.6094" style="stroke: #A80036; stroke-width: 1.0;"/><line style="stroke: #A80036; stroke-width: 1.0;" x1="491" x2="704" y1="409.6094" y2="409.6094"/><text fill="#000000" font-family="sans-serif" font-size="13" lengthAdjust="spacingAndGlyphs" textLength="117" x="498" y="404.7529">メリイについて相談</text><polygon fill="#A80036" points="502,452.3125,492,456.3125,502,460.3125,498,456.3125" style="stroke: #A80036; stroke-width: 1.0;"/><line style="stroke: #A80036; stroke-width: 1.0;" x1="496" x2="709" y1="456.3125" y2="456.3125"/><text fill="#000000" font-family="sans-serif" font-size="13" lengthAdjust="spacingAndGlyphs" textLength="91" x="508" y="435.1045">メリイとともに</text><text fill="#000000" font-family="sans-serif" font-size="13" lengthAdjust="spacingAndGlyphs" textLength="143" x="508" y="451.4561">シルシの長の破壊を提案</text><polygon fill="#A80036" points="698,482.6641,708,486.6641,698,490.6641,702,486.6641" style="stroke: #A80036; stroke-width: 1.0;"/><line style="stroke: #A80036; stroke-width: 1.0; stroke-dasharray: 2.0,2.0;" x1="491" x2="704" y1="486.6641" y2="486.6641"/><text fill="#000000" font-family="sans-serif" font-size="13" lengthAdjust="spacingAndGlyphs" textLength="26" x="498" y="481.8076">了承</text><polygon fill="#A80036" points="100,529.3672,90,533.3672,100,537.3672,96,533.3672" style="stroke: #A80036; stroke-width: 1.0;"/><line style="stroke: #A80036; stroke-width: 1.0;" x1="94" x2="709" y1="533.3672" y2="533.3672"/><text fill="#000000" font-family="sans-serif" font-size="13" lengthAdjust="spacingAndGlyphs" textLength="91" x="106" y="512.1592">メリイとともに</text><text fill="#000000" font-family="sans-serif" font-size="13" lengthAdjust="spacingAndGlyphs" textLength="143" x="106" y="528.5107">シルシの長の破壊を提案</text><polygon fill="#A80036" points="698,559.7188,708,563.7188,698,567.7188,702,563.7188" style="stroke: #A80036; stroke-width: 1.0;"/><line style="stroke: #A80036; stroke-width: 1.0; stroke-dasharray: 2.0,2.0;" x1="89" x2="704" y1="563.7188" y2="563.7188"/><text fill="#000000" font-family="sans-serif" font-size="13" lengthAdjust="spacingAndGlyphs" textLength="26" x="96" y="558.8623">拒否</text><polygon fill="#A80036" points="322,590.0703,332,594.0703,322,598.0703,326,594.0703" style="stroke: #A80036; stroke-width: 1.0;"/><line style="stroke: #A80036; stroke-width: 1.0;" x1="89" x2="328" y1="594.0703" y2="594.0703"/><text fill="#000000" font-family="sans-serif" font-size="13" lengthAdjust="spacingAndGlyphs" textLength="195" x="96" y="589.2139">念持仏（シルシの長）を取り出す</text><line style="stroke: #A80036; stroke-width: 1.0;" x1="334" x2="376" y1="624.4219" y2="624.4219"/><line style="stroke: #A80036; stroke-width: 1.0;" x1="376" x2="376" y1="624.4219" y2="637.4219"/><line style="stroke: #A80036; stroke-width: 1.0;" x1="335" x2="376" y1="637.4219" y2="637.4219"/><polygon fill="#A80036" points="345,633.4219,335,637.4219,345,641.4219,341,637.4219" style="stroke: #A80036; stroke-width: 1.0;"/><text fill="#000000" font-family="sans-serif" font-size="13" lengthAdjust="spacingAndGlyphs" textLength="91" x="341" y="619.5654">怪異化前に覚醒</text><polygon fill="#A80036" points="100,680.125,90,684.125,100,688.125,96,684.125" style="stroke: #A80036; stroke-width: 1.0;"/><line style="stroke: #A80036; stroke-width: 1.0; stroke-dasharray: 2.0,2.0;" x1="94" x2="333" y1="684.125" y2="684.125"/><text fill="#000000" font-family="sans-serif" font-size="13" lengthAdjust="spacingAndGlyphs" textLength="130" x="106" y="662.917">シルシの長を肩代わり</text><text fill="#000000" font-family="sans-serif" font-size="13" lengthAdjust="spacingAndGlyphs" textLength="91" x="106" y="679.2686">→浄化を試みる</text><polygon fill="#A80036" points="100,726.8281,90,730.8281,100,734.8281,96,730.8281" style="stroke: #A80036; stroke-width: 1.0;"/><line style="stroke: #A80036; stroke-width: 1.0;" x1="94" x2="490" y1="730.8281" y2="730.8281"/><text fill="#000000" font-family="sans-serif" font-size="13" lengthAdjust="spacingAndGlyphs" textLength="117" x="106" y="709.6201">メリイから念持仏を</text><text fill="#000000" font-family="sans-serif" font-size="13" lengthAdjust="spacingAndGlyphs" textLength="130" x="106" y="725.9717">取り出したことを知る</text><polygon fill="#A80036" points="345,757.1797,335,761.1797,345,765.1797,341,761.1797" style="stroke: #A80036; stroke-width: 1.0;"/><line style="stroke: #A80036; stroke-width: 1.0;" x1="339" x2="709" y1="761.1797" y2="761.1797"/><text fill="#000000" font-family="sans-serif" font-size="13" lengthAdjust="spacingAndGlyphs" textLength="208" x="351" y="756.3232">正宗に逆さ呪いをかけることを提案</text><polygon fill="#A80036" points="698,787.5313,708,791.5313,698,795.5313,702,791.5313" style="stroke: #A80036; stroke-width: 1.0;"/><line style="stroke: #A80036; stroke-width: 1.0; stroke-dasharray: 2.0,2.0;" x1="334" x2="704" y1="791.5313" y2="791.5313"/><text fill="#000000" font-family="sans-serif" font-size="13" lengthAdjust="spacingAndGlyphs" textLength="26" x="341" y="786.6748">了承</text><polygon fill="#A80036" points="100,817.8828,90,821.8828,100,825.8828,96,821.8828" style="stroke: #A80036; stroke-width: 1.0;"/><line style="stroke: #A80036; stroke-width: 1.0;" x1="94" x2="333" y1="821.8828" y2="821.8828"/><text fill="#000000" font-family="sans-serif" font-size="13" lengthAdjust="spacingAndGlyphs" textLength="182" x="106" y="817.0264">逆さ呪い（青いシルシ）を刻む</text><polygon fill="#A80036" points="698,864.5859,708,868.5859,698,872.5859,702,868.5859" style="stroke: #A80036; stroke-width: 1.0;"/><line style="stroke: #A80036; stroke-width: 1.0;" x1="491" x2="704" y1="868.5859" y2="868.5859"/><text fill="#000000" font-family="sans-serif" font-size="13" lengthAdjust="spacingAndGlyphs" textLength="91" x="498" y="847.3779">他に手がないか</text><text fill="#000000" font-family="sans-serif" font-size="13" lengthAdjust="spacingAndGlyphs" textLength="143" x="498" y="863.7295">模索するため、ロゼ帰国</text><rect fill="#EEEEEE" filter="url(#fztaxhrpt4r6v)" height="3" style="stroke: #EEEEEE; stroke-width: 1.0;" width="936" x="3" y="897.7617"/><line style="stroke: #000000; stroke-width: 1.0;" x1="3" x2="939" y1="897.7617" y2="897.7617"/><line style="stroke: #000000; stroke-width: 1.0;" x1="3" x2="939" y1="900.7617" y2="900.7617"/><rect fill="#EEEEEE" filter="url(#fztaxhrpt4r6v)" height="24.3516" style="stroke: #000000; stroke-width: 2.0;" width="56" x="443" y="886.5859"/><text fill="#000000" font-family="sans-serif" font-size="13" font-weight="bold" lengthAdjust="spacingAndGlyphs" textLength="42" x="449" y="904.0811">第一章</text><line style="stroke: #A80036; stroke-width: 1.0;" x1="89" x2="131" y1="943.2891" y2="943.2891"/><line style="stroke: #A80036; stroke-width: 1.0;" x1="131" x2="131" y1="943.2891" y2="956.2891"/><line style="stroke: #A80036; stroke-width: 1.0;" x1="90" x2="131" y1="956.2891" y2="956.2891"/><polygon fill="#A80036" points="100,952.2891,90,956.2891,100,960.2891,96,956.2891" style="stroke: #A80036; stroke-width: 1.0;"/><text fill="#000000" font-family="sans-serif" font-size="13" lengthAdjust="spacingAndGlyphs" textLength="130" x="96" y="938.4326">シルシの長覚醒の兆し</text><polygon fill="#A80036" points="100,998.9922,90,1002.9922,100,1006.9922,96,1002.9922" style="stroke: #A80036; stroke-width: 1.0;"/><line style="stroke: #A80036; stroke-width: 1.0;" x1="94" x2="333" y1="1002.9922" y2="1002.9922"/><text fill="#000000" font-family="sans-serif" font-size="13" lengthAdjust="spacingAndGlyphs" textLength="104" x="106" y="981.7842">青いシルシの力で</text><text fill="#000000" font-family="sans-serif" font-size="13" lengthAdjust="spacingAndGlyphs" textLength="130" x="106" y="998.1357">九条正宗の記憶を封印</text><line style="stroke: #A80036; stroke-width: 1.0;" x1="491" x2="533" y1="1033.3438" y2="1033.3438"/><line style="stroke: #A80036; stroke-width: 1.0;" x1="533" x2="533" y1="1033.3438" y2="1046.3438"/><line style="stroke: #A80036; stroke-width: 1.0;" x1="492" x2="533" y1="1046.3438" y2="1046.3438"/><polygon fill="#A80036" points="502,1042.3438,492,1046.3438,502,1050.3438,498,1046.3438" style="stroke: #A80036; stroke-width: 1.0;"/><text fill="#000000" font-family="sans-serif" font-size="13" lengthAdjust="spacingAndGlyphs" textLength="130" x="498" y="1028.4873">花彦くんの呪いで死亡</text><polygon fill="#A80036" points="479,1072.6953,489,1076.6953,479,1080.6953,483,1076.6953" style="stroke: #A80036; stroke-width: 1.0;"/><line style="stroke: #A80036; stroke-width: 1.0;" x1="89" x2="485" y1="1076.6953" y2="1076.6953"/><text fill="#000000" font-family="sans-serif" font-size="13" lengthAdjust="spacingAndGlyphs" textLength="104" x="96" y="1071.8389">九条館で死体発見</text><polygon fill="#A80036" points="322,1103.0469,332,1107.0469,322,1111.0469,326,1107.0469" style="stroke: #A80036; stroke-width: 1.0;"/><line style="stroke: #A80036; stroke-width: 1.0;" x1="89" x2="328" y1="1107.0469" y2="1107.0469"/><text fill="#000000" font-family="sans-serif" font-size="13" lengthAdjust="spacingAndGlyphs" textLength="78" x="96" y="1102.1904">九条館で対面</text><polygon fill="#A80036" points="100,1149.75,90,1153.75,100,1157.75,96,1153.75" style="stroke: #A80036; stroke-width: 1.0;"/><line style="stroke: #A80036; stroke-width: 1.0;" x1="94" x2="333" y1="1153.75" y2="1153.75"/><text fill="#000000" font-family="sans-serif" font-size="13" lengthAdjust="spacingAndGlyphs" textLength="117" x="106" y="1132.542">一縷の望みをかけて</text><text fill="#000000" font-family="sans-serif" font-size="13" lengthAdjust="spacingAndGlyphs" textLength="91" x="106" y="1148.8936">怪異退治を提案</text><polygon fill="#A80036" points="322,1180.1016,332,1184.1016,322,1188.1016,326,1184.1016" style="stroke: #A80036; stroke-width: 1.0;"/><line style="stroke: #A80036; stroke-width: 1.0;" x1="89" x2="328" y1="1184.1016" y2="1184.1016"/><text fill="#000000" font-family="sans-serif" font-size="13" lengthAdjust="spacingAndGlyphs" textLength="26" x="96" y="1179.2451">承諾</text><polygon fill="#A80036" points="878,1210.4531,888,1214.4531,878,1218.4531,882,1214.4531" style="stroke: #A80036; stroke-width: 1.0;"/><line style="stroke: #A80036; stroke-width: 1.0;" x1="710" x2="884" y1="1214.4531" y2="1214.4531"/><text fill="#000000" font-family="sans-serif" font-size="13" lengthAdjust="spacingAndGlyphs" textLength="152" x="717" y="1209.5967">H小学校の怪異調査を指示</text><polygon fill="#A80036" points="100,1240.8047,90,1244.8047,100,1248.8047,96,1244.8047" style="stroke: #A80036; stroke-width: 1.0;"/><polygon fill="#A80036" points="878,1240.8047,888,1244.8047,878,1248.8047,882,1244.8047" style="stroke: #A80036; stroke-width: 1.0;"/><line style="stroke: #A80036; stroke-width: 1.0;" x1="94" x2="884" y1="1244.8047" y2="1244.8047"/><text fill="#000000" font-family="sans-serif" font-size="13" lengthAdjust="spacingAndGlyphs" textLength="87" x="106" y="1239.9482">H小学校で遭遇</text><polygon fill="#A80036" points="100,1303.8594,90,1307.8594,100,1311.8594,96,1307.8594" style="stroke: #A80036; stroke-width: 1.0;"/><line style="stroke: #A80036; stroke-width: 1.0;" x1="94" x2="889" y1="1307.8594" y2="1307.8594"/><text fill="#000000" font-family="sans-serif" font-size="13" lengthAdjust="spacingAndGlyphs" textLength="65" x="106" y="1270.2998">黄金銃発砲</text><text fill="#000000" font-family="sans-serif" font-size="13" lengthAdjust="spacingAndGlyphs" textLength="104" x="106" y="1286.6514">→高い霊格を確認</text><text fill="#000000" font-family="sans-serif" font-size="13" lengthAdjust="spacingAndGlyphs" textLength="169" x="106" y="1303.0029">→覚醒していないため様子見</text><rect fill="#EEEEEE" filter="url(#fztaxhrpt4r6v)" height="3" style="stroke: #EEEEEE; stroke-width: 1.0;" width="936" x="3" y="1337.0352"/><line style="stroke: #000000; stroke-width: 1.0;" x1="3" x2="939" y1="1337.0352" y2="1337.0352"/><line style="stroke: #000000; stroke-width: 1.0;" x1="3" x2="939" y1="1340.0352" y2="1340.0352"/><rect fill="#EEEEEE" filter="url(#fztaxhrpt4r6v)" height="24.3516" style="stroke: #000000; stroke-width: 2.0;" width="56" x="443" y="1325.8594"/><text fill="#000000" font-family="sans-serif" font-size="13" font-weight="bold" lengthAdjust="spacingAndGlyphs" textLength="42" x="449" y="1343.3545">第二章</text><polygon fill="#A80036" points="502,1394.9141,492,1398.9141,502,1402.9141,498,1398.9141" style="stroke: #A80036; stroke-width: 1.0;"/><line style="stroke: #A80036; stroke-width: 1.0;" x1="496" x2="709" y1="1398.9141" y2="1398.9141"/><text fill="#000000" font-family="sans-serif" font-size="13" lengthAdjust="spacingAndGlyphs" textLength="195" x="508" y="1377.7061">連絡がつかないことで異変を察知</text><text fill="#000000" font-family="sans-serif" font-size="13" lengthAdjust="spacingAndGlyphs" textLength="39" x="508" y="1394.0576">→来日</text><polygon fill="#A80036" points="721,1425.2656,711,1429.2656,721,1433.2656,717,1429.2656" style="stroke: #A80036; stroke-width: 1.0;"/><line style="stroke: #A80036; stroke-width: 1.0;" x1="715" x2="889" y1="1429.2656" y2="1429.2656"/><text fill="#000000" font-family="sans-serif" font-size="13" lengthAdjust="spacingAndGlyphs" textLength="52" x="727" y="1424.4092">定時報告</text><polygon fill="#A80036" points="878,1455.6172,888,1459.6172,878,1463.6172,882,1459.6172" style="stroke: #A80036; stroke-width: 1.0;"/><line style="stroke: #A80036; stroke-width: 1.0;" x1="710" x2="884" y1="1459.6172" y2="1459.6172"/><text fill="#000000" font-family="sans-serif" font-size="13" lengthAdjust="spacingAndGlyphs" textLength="65" x="717" y="1454.7607">撤退を提案</text><polygon fill="#A80036" points="721,1485.9688,711,1489.9688,721,1493.9688,717,1489.9688" style="stroke: #A80036; stroke-width: 1.0;"/><line style="stroke: #A80036; stroke-width: 1.0; stroke-dasharray: 2.0,2.0;" x1="715" x2="889" y1="1489.9688" y2="1489.9688"/><text fill="#000000" font-family="sans-serif" font-size="13" lengthAdjust="spacingAndGlyphs" textLength="26" x="727" y="1485.1123">拒否</text><polygon fill="#A80036" points="100,1516.3203,90,1520.3203,100,1524.3203,96,1520.3203" style="stroke: #A80036; stroke-width: 1.0;"/><line style="stroke: #A80036; stroke-width: 1.0;" x1="94" x2="889" y1="1520.3203" y2="1520.3203"/><text fill="#000000" font-family="sans-serif" font-size="13" lengthAdjust="spacingAndGlyphs" textLength="143" x="106" y="1515.4639">再度、黄金銃で霊格確認</text><polygon fill="#A80036" points="878,1546.6719,888,1550.6719,878,1554.6719,882,1550.6719" style="stroke: #A80036; stroke-width: 1.0;"/><line style="stroke: #A80036; stroke-width: 1.0; stroke-dasharray: 2.0,2.0;" x1="89" x2="884" y1="1550.6719" y2="1550.6719"/><text fill="#000000" font-family="sans-serif" font-size="13" lengthAdjust="spacingAndGlyphs" textLength="130" x="96" y="1545.8154">シルシの長の呪い発動</text><line style="stroke: #A80036; stroke-width: 1.0;" x1="890" x2="932" y1="1581.0234" y2="1581.0234"/><line style="stroke: #A80036; stroke-width: 1.0;" x1="932" x2="932" y1="1581.0234" y2="1594.0234"/><line style="stroke: #A80036; stroke-width: 1.0;" x1="891" x2="932" y1="1594.0234" y2="1594.0234"/><polygon fill="#A80036" points="901,1590.0234,891,1594.0234,901,1598.0234,897,1594.0234" style="stroke: #A80036; stroke-width: 1.0;"/><text fill="#000000" font-family="sans-serif" font-size="13" lengthAdjust="spacingAndGlyphs" textLength="26" x="897" y="1576.167">死亡</text><rect fill="#EEEEEE" filter="url(#fztaxhrpt4r6v)" height="3" style="stroke: #EEEEEE; stroke-width: 1.0;" width="936" x="3" y="1623.1992"/><line style="stroke: #000000; stroke-width: 1.0;" x1="3" x2="939" y1="1623.1992" y2="1623.1992"/><line style="stroke: #000000; stroke-width: 1.0;" x1="3" x2="939" y1="1626.1992" y2="1626.1992"/><rect fill="#EEEEEE" filter="url(#fztaxhrpt4r6v)" height="24.3516" style="stroke: #000000; stroke-width: 2.0;" width="56" x="443" y="1612.0234"/><text fill="#000000" font-family="sans-serif" font-size="13" font-weight="bold" lengthAdjust="spacingAndGlyphs" textLength="42" x="449" y="1629.5186">第三章</text><polygon fill="#A80036" points="100,1681.0781,90,1685.0781,100,1689.0781,96,1685.0781" style="stroke: #A80036; stroke-width: 1.0;"/><line style="stroke: #A80036; stroke-width: 1.0;" x1="94" x2="333" y1="1685.0781" y2="1685.0781"/><text fill="#000000" font-family="sans-serif" font-size="13" lengthAdjust="spacingAndGlyphs" textLength="117" x="106" y="1663.8701">シルシの長の覚醒が</text><text fill="#000000" font-family="sans-serif" font-size="13" lengthAdjust="spacingAndGlyphs" textLength="91" x="106" y="1680.2217">近いことを察知</text><polygon fill="#A80036" points="100,1711.4297,90,1715.4297,100,1719.4297,96,1715.4297" style="stroke: #A80036; stroke-width: 1.0;"/><line style="stroke: #A80036; stroke-width: 1.0;" x1="94" x2="333" y1="1715.4297" y2="1715.4297"/><text fill="#000000" font-family="sans-serif" font-size="13" lengthAdjust="spacingAndGlyphs" textLength="156" x="106" y="1710.5732">対観音兵に同行を申し出る</text><polygon fill="#A80036" points="322,1741.7813,332,1745.7813,322,1749.7813,326,1745.7813" style="stroke: #A80036; stroke-width: 1.0;"/><line style="stroke: #A80036; stroke-width: 1.0; stroke-dasharray: 2.0,2.0;" x1="89" x2="328" y1="1745.7813" y2="1745.7813"/><text fill="#000000" font-family="sans-serif" font-size="13" lengthAdjust="spacingAndGlyphs" textLength="26" x="96" y="1740.9248">拒否</text><line style="stroke: #A80036; stroke-width: 1.0;" x1="89" x2="131" y1="1776.1328" y2="1776.1328"/><line style="stroke: #A80036; stroke-width: 1.0;" x1="131" x2="131" y1="1776.1328" y2="1789.1328"/><line style="stroke: #A80036; stroke-width: 1.0;" x1="90" x2="131" y1="1789.1328" y2="1789.1328"/><polygon fill="#A80036" points="100,1785.1328,90,1789.1328,100,1793.1328,96,1789.1328" style="stroke: #A80036; stroke-width: 1.0;"/><text fill="#000000" font-family="sans-serif" font-size="13" lengthAdjust="spacingAndGlyphs" textLength="104" x="96" y="1771.2764">シルシの長、覚醒</text><rect fill="#EEEEEE" filter="url(#fztaxhrpt4r6v)" height="3" style="stroke: #EEEEEE; stroke-width: 1.0;" width="936" x="3" y="1818.3086"/><line style="stroke: #000000; stroke-width: 1.0;" x1="3" x2="939" y1="1818.3086" y2="1818.3086"/><line style="stroke: #000000; stroke-width: 1.0;" x1="3" x2="939" y1="1821.3086" y2="1821.3086"/><rect fill="#EEEEEE" filter="url(#fztaxhrpt4r6v)" height="24.3516" style="stroke: #000000; stroke-width: 2.0;" width="56" x="443" y="1807.1328"/><text fill="#000000" font-family="sans-serif" font-size="13" font-weight="bold" lengthAdjust="spacingAndGlyphs" textLength="42" x="449" y="1824.6279">第四章</text><polygon fill="#A80036" points="322,1876.1875,332,1880.1875,322,1884.1875,326,1880.1875" style="stroke: #A80036; stroke-width: 1.0;"/><line style="stroke: #A80036; stroke-width: 1.0;" x1="89" x2="328" y1="1880.1875" y2="1880.1875"/><text fill="#000000" font-family="sans-serif" font-size="13" lengthAdjust="spacingAndGlyphs" textLength="130" x="96" y="1858.9795">契りを交わすために、</text><text fill="#000000" font-family="sans-serif" font-size="13" lengthAdjust="spacingAndGlyphs" textLength="169" x="96" y="1875.3311">念持仏の再埋め込みを試みる</text><polygon fill="#A80036" points="100,1906.5391,90,1910.5391,100,1914.5391,96,1910.5391" style="stroke: #A80036; stroke-width: 1.0;"/><line style="stroke: #A80036; stroke-width: 1.0;" x1="94" x2="709" y1="1910.5391" y2="1910.5391"/><text fill="#000000" font-family="sans-serif" font-size="13" lengthAdjust="spacingAndGlyphs" textLength="78" x="106" y="1905.6826">九条館で相対</text><polygon fill="#A80036" points="345,1936.8906,335,1940.8906,345,1944.8906,341,1940.8906" style="stroke: #A80036; stroke-width: 1.0;"/><line style="stroke: #A80036; stroke-width: 1.0;" x1="339" x2="709" y1="1940.8906" y2="1940.8906"/><text fill="#000000" font-family="sans-serif" font-size="13" lengthAdjust="spacingAndGlyphs" textLength="182" x="351" y="1936.0342">時間を稼ぎ、メリイをサポート</text><polygon fill="#A80036" points="721,1967.2422,711,1971.2422,721,1975.2422,717,1971.2422" style="stroke: #A80036; stroke-width: 1.0;"/><line style="stroke: #A80036; stroke-width: 1.0;" x1="715" x2="889" y1="1971.2422" y2="1971.2422"/><text fill="#000000" font-family="sans-serif" font-size="13" lengthAdjust="spacingAndGlyphs" textLength="156" x="727" y="1966.3857">黄金銃の在り処を知らせる</text><line style="stroke: #A80036; stroke-width: 1.0;" x1="334" x2="376" y1="2001.5938" y2="2001.5938"/><line style="stroke: #A80036; stroke-width: 1.0;" x1="376" x2="376" y1="2001.5938" y2="2014.5938"/><line style="stroke: #A80036; stroke-width: 1.0;" x1="335" x2="376" y1="2014.5938" y2="2014.5938"/><polygon fill="#A80036" points="345,2010.5938,335,2014.5938,345,2018.5938,341,2014.5938" style="stroke: #A80036; stroke-width: 1.0;"/><text fill="#000000" font-family="sans-serif" font-size="13" lengthAdjust="spacingAndGlyphs" textLength="143" x="341" y="1996.7373">シルシの長の破壊を決意</text><polygon fill="#A80036" points="100,2057.2969,90,2061.2969,100,2065.2969,96,2061.2969" style="stroke: #A80036; stroke-width: 1.0;"/><line style="stroke: #A80036; stroke-width: 1.0;" x1="94" x2="333" y1="2061.2969" y2="2061.2969"/><text fill="#000000" font-family="sans-serif" font-size="13" lengthAdjust="spacingAndGlyphs" textLength="221" x="106" y="2040.0889">自らの命をかけた青いシルシの力と、</text><text fill="#000000" font-family="sans-serif" font-size="13" lengthAdjust="spacingAndGlyphs" textLength="195" x="106" y="2056.4404">印人の怨念でシルシの長ごと破壊</text><!--
@startuml

actor "九条正宗/八敷一男" as yashiki
actor "メリイ" as mery
actor "九条サヤ" as saya
actor "ムーラン・ロゼ" as rose
actor "真下悟" as mashita

skinparam BoxPadding 20

box "九条館" #AntiqueWhite
participant yashiki
participant mery
participant saya
end box

box "組織" #HoneyDew
participant rose
participant mashita
end box

== 九条正宗 幼少期==
yashiki -> mery : 九条館の開かずの扉の先で発見
...数十年後...

== 前日譚==
yashiki -> mery : メリイの存在を確信
yashiki -> rose : メリイを救うため、\n人形技術の調査に赴く
rose - -> yashiki : 何も発見できず帰国

saya -> rose : メリイについて相談
rose -> saya : メリイとともに\nシルシの長の破壊を提案
saya - -> rose : 了承

rose -> yashiki : メリイとともに\nシルシの長の破壊を提案
yashiki - -> rose : 拒否

yashiki -> mery : 念持仏（シルシの長）を取り出す
mery -> mery : 怪異化前に覚醒
mery - -> yashiki : シルシの長を肩代わり\n→浄化を試みる
saya -> yashiki : メリイから念持仏を\n取り出したことを知る

rose -> mery : 正宗に逆さ呪いをかけることを提案
mery - -> rose : 了承
mery -> yashiki : 逆さ呪い（青いシルシ）を刻む

saya -> rose : 他に手がないか\n模索するため、ロゼ帰国

== 第一章==
yashiki -> yashiki : シルシの長覚醒の兆し
mery -> yashiki : 青いシルシの力で\n九条正宗の記憶を封印

saya -> saya : 花彦くんの呪いで死亡
yashiki -> saya : 九条館で死体発見
yashiki -> mery : 九条館で対面
mery -> yashiki : 一縷の望みをかけて\n怪異退治を提案
yashiki -> mery : 承諾

rose -> mashita : H小学校の怪異調査を指示
yashiki <-> mashita : H小学校で遭遇

mashita -> yashiki : 黄金銃発砲\n→高い霊格を確認\n→覚醒していないため様子見

== 第二章==
rose -> saya : 連絡がつかないことで異変を察知\n→来日
mashita -> rose : 定時報告
rose -> mashita : 撤退を提案
mashita - -> rose : 拒否

mashita -> yashiki : 再度、黄金銃で霊格確認
yashiki - -> mashita : シルシの長の呪い発動
mashita -> mashita : 死亡

== 第三章==
mery -> yashiki : シルシの長の覚醒が\n近いことを察知
mery -> yashiki : 対観音兵に同行を申し出る
yashiki - -> mery : 拒否
yashiki -> yashiki : シルシの長、覚醒

== 第四章==
yashiki -> mery : 契りを交わすために、\n念持仏の再埋め込みを試みる
rose -> yashiki : 九条館で相対
rose -> mery : 時間を稼ぎ、メリイをサポート
mashita -> rose : 黄金銃の在り処を知らせる
mery -> mery : シルシの長の破壊を決意
mery -> yashiki : 自らの命をかけた青いシルシの力と、\n印人の怨念でシルシの長ごと破壊

@enduml

PlantUML version 1.2019.09(Tue Aug 27 01:19:51 GMT+09:00 2019)
(GPL source distribution)
Java Runtime: Java(TM) SE Runtime Environment
JVM: Java HotSpot(TM) 64-Bit Server VM
Java Version: 1.8.0_231-b11
Operating System: Windows 10
OS Version: 10.0
Default Encoding: MS932
Language: ja
Country: JP
--></g></svg>