<?xml version="1.0" encoding="UTF-8" standalone="no"?><svg xmlns="http://www.w3.org/2000/svg" xmlns:xlink="http://www.w3.org/1999/xlink" contentScriptType="application/ecmascript" contentStyleType="text/css" height="331px" preserveAspectRatio="none" style="width:604px;height:331px;" version="1.1" viewBox="0 0 604 331" width="604px" zoomAndPan="magnify"><defs><filter height="300%" id="f18nojsltwdoc6" width="300%" x="-1" y="-1"><feGaussianBlur result="blurOut" stdDeviation="2.0"/><feColorMatrix in="blurOut" result="blurOut2" type="matrix" values="0 0 0 0 0 0 0 0 0 0 0 0 0 0 0 0 0 0 .4 0"/><feOffset dx="4.0" dy="4.0" in="blurOut2" result="blurOut3"/><feBlend in="SourceGraphic" in2="blurOut3" mode="normal"/></filter></defs><g><ellipse cx="309.6985" cy="194.4517" fill="#FEFECE" filter="url(#f18nojsltwdoc6)" rx="32.6985" ry="15.4517" style="stroke: #A80036; stroke-width: 1.5;"/><text fill="#000000" font-family="sans-serif" font-size="14" lengthAdjust="spacingAndGlyphs" textLength="42" x="288.6985" y="199.7564">メリイ</text><!--entity Mary_Origin--><ellipse cx="309.5" cy="18.5" fill="#FEFECE" filter="url(#f18nojsltwdoc6)" rx="8" ry="8" style="stroke: #A80036; stroke-width: 2.0;"/><path d="M309.5,26.5 L309.5,53.5 M296.5,34.5 L322.5,34.5 M309.5,53.5 L296.5,68.5 M309.5,53.5 L322.5,68.5 " fill="none" filter="url(#f18nojsltwdoc6)" style="stroke: #A80036; stroke-width: 2.0;"/><text fill="#000000" font-family="sans-serif" font-size="14" lengthAdjust="spacingAndGlyphs" textLength="42" x="269.5" y="90.0332">メリイ</text><text fill="#000000" font-family="sans-serif" font-size="14" lengthAdjust="spacingAndGlyphs" textLength="80" x="269.5" y="107.6426">(オリジナル)</text><!--entity Masamune--><ellipse cx="564" cy="126" fill="#FEFECE" filter="url(#f18nojsltwdoc6)" rx="8" ry="8" style="stroke: #A80036; stroke-width: 2.0;"/><path d="M564,134 L564,161 M551,142 L577,142 M564,161 L551,176 M564,161 L577,176 " fill="none" filter="url(#f18nojsltwdoc6)" style="stroke: #A80036; stroke-width: 2.0;"/><text fill="#000000" font-family="sans-serif" font-size="14" lengthAdjust="spacingAndGlyphs" textLength="56" x="536" y="197.5332">九条正宗</text><!--entity Saya--><ellipse cx="55" cy="102" fill="#FEFECE" filter="url(#f18nojsltwdoc6)" rx="8" ry="8" style="stroke: #A80036; stroke-width: 2.0;"/><path d="M55,110 L55,137 M42,118 L68,118 M55,137 L42,152 M55,137 L68,152 " fill="none" filter="url(#f18nojsltwdoc6)" style="stroke: #A80036; stroke-width: 2.0;"/><text fill="#000000" font-family="sans-serif" font-size="14" lengthAdjust="spacingAndGlyphs" textLength="56" x="27" y="173.5332">九条サヤ</text><!--entity Rose--><ellipse cx="55" cy="222" fill="#FEFECE" filter="url(#f18nojsltwdoc6)" rx="8" ry="8" style="stroke: #A80036; stroke-width: 2.0;"/><path d="M55,230 L55,257 M42,238 L68,238 M55,257 L42,272 M55,257 L68,272 " fill="none" filter="url(#f18nojsltwdoc6)" style="stroke: #A80036; stroke-width: 2.0;"/><text fill="#000000" font-family="sans-serif" font-size="14" lengthAdjust="spacingAndGlyphs" textLength="98" x="6" y="293.5332">ムーラン・ロゼ</text><ellipse cx="309.4975" cy="278.4517" fill="#FEFECE" filter="url(#f18nojsltwdoc6)" rx="52.4975" ry="15.4517" style="stroke: #A80036; stroke-width: 1.5;"/><text fill="#000000" font-family="sans-serif" font-size="14" lengthAdjust="spacingAndGlyphs" textLength="70" x="274.4975" y="283.7564">シルシの長</text><!--entity Yashiki--><ellipse cx="564" cy="246" fill="#FEFECE" filter="url(#f18nojsltwdoc6)" rx="8" ry="8" style="stroke: #A80036; stroke-width: 2.0;"/><path d="M564,254 L564,281 M551,262 L577,262 M564,281 L551,296 M564,281 L577,296 " fill="none" filter="url(#f18nojsltwdoc6)" style="stroke: #A80036; stroke-width: 2.0;"/><text fill="#000000" font-family="sans-serif" font-size="14" lengthAdjust="spacingAndGlyphs" textLength="56" x="536" y="317.5332">八敷一男</text><!--reverse link Mary_Origin to Mary--><path d="M309.5,130.853 C309.5,148.922 309.5,166.621 309.5,178.75 " fill="none" id="Mary_Origin&lt;-Mary" style="stroke: #A80036; stroke-width: 1.0;"/><polygon fill="none" points="302.5,130.574,309.5,110.574,316.5,130.574,302.5,130.574" style="stroke: #A80036; stroke-width: 1.0;"/><text fill="#000000" font-family="sans-serif" font-size="13" lengthAdjust="spacingAndGlyphs" textLength="65" x="257" y="142.2451">魂を人形に</text><text fill="#000000" font-family="sans-serif" font-size="13" lengthAdjust="spacingAndGlyphs" textLength="65" x="257" y="158.5967">封じられる</text><!--link Mary to Osa--><path d="M309.5,210.229 C309.5,223.5833 309.5,242.8588 309.5,257.525 " fill="none" id="Mary-&gt;Osa" style="stroke: #A80036; stroke-width: 1.0;"/><polygon fill="#A80036" points="309.5,262.7002,313.5,253.7002,309.5,257.7002,305.5,253.7002,309.5,262.7002" style="stroke: #A80036; stroke-width: 1.0;"/><text fill="#000000" font-family="sans-serif" font-size="13" lengthAdjust="spacingAndGlyphs" textLength="26" x="284.5" y="241.9951">封印</text><!--link Saya to Mary--><path d="M83.0219,140.921 C129.515,151.969 224.511,174.542 275.083,186.559 " fill="none" id="Saya-&gt;Mary" style="stroke: #A80036; stroke-width: 1.0;"/><polygon fill="#A80036" points="280.133,187.759,272.3014,181.7869,275.2684,186.6032,270.4521,189.5703,280.133,187.759" style="stroke: #A80036; stroke-width: 1.0;"/><!--link Rose to Mary--><path d="M104.0451,244.4275 C138.39,237.08 185.656,226.6686 227,216.5 C243.239,212.506 261.192,207.702 276.106,203.603 " fill="none" id="Rose-&gt;Mary" style="stroke: #A80036; stroke-width: 1.0;"/><polygon fill="#A80036" points="281.041,202.243,271.3013,200.781,276.2211,203.573,273.4292,208.4928,281.041,202.243" style="stroke: #A80036; stroke-width: 1.0;"/><text fill="#000000" font-family="sans-serif" font-size="13" lengthAdjust="spacingAndGlyphs" textLength="91" x="135" y="196.9951">シルシの長ごと</text><text fill="#000000" font-family="sans-serif" font-size="13" lengthAdjust="spacingAndGlyphs" textLength="65" x="148" y="213.3467">破壊を計画</text><!--link Mary to Masamune--><path d="M336.209,203.551 C374.596,215.555 448.528,232.7768 506,210.5 C515.274,206.905 523.963,201.022 531.626,194.479 " fill="none" id="Mary-&gt;Masamune" style="stroke: #A80036; stroke-width: 1.0;"/><polygon fill="#A80036" points="535.776,190.787,526.3935,193.7818,532.0408,194.1109,531.7117,199.7581,535.776,190.787" style="stroke: #A80036; stroke-width: 1.0;"/><text fill="#000000" font-family="sans-serif" font-size="13" lengthAdjust="spacingAndGlyphs" textLength="52" x="423" y="190.9951">逆さ呪い</text><text fill="#000000" font-family="sans-serif" font-size="13" lengthAdjust="spacingAndGlyphs" textLength="112" x="393" y="207.3467">(青いシルシ)を刻む</text><!--reverse link Mary to Masamune--><path d="M341.977,184.567 C356.98,180.204 375.267,175.418 392,172.5 C442.325,163.723 501.966,160.423 535.856,159.2 " fill="none" id="Mary&lt;-Masamune" style="stroke: #A80036; stroke-width: 1.0;"/><polygon fill="#A80036" points="337.021,186.027,346.7845,187.3206,341.8172,184.614,344.5237,179.6467,337.021,186.027" style="stroke: #A80036; stroke-width: 1.0;"/><text fill="#000000" font-family="sans-serif" font-size="13" lengthAdjust="spacingAndGlyphs" textLength="104" x="397" y="141.9951">念持仏を取り出し</text><text fill="#000000" font-family="sans-serif" font-size="13" lengthAdjust="spacingAndGlyphs" textLength="104" x="397" y="158.3467">生贄の輪から解放</text><!--reverse link Masamune to Yashiki--><path d="M564,221.186 C564,226.0719 564,230.9578 564,235.8437 " fill="none" id="Masamune&lt;-Yashiki" style="stroke: #A80036; stroke-width: 1.0;"/><polygon fill="none" points="557,221.0995,564,201.099,571,221.0995,557,221.0995" style="stroke: #A80036; stroke-width: 1.0;"/><!--link Osa to Yashiki--><path d="M362.206,278.5 C412.812,278.5 488.313,278.5 530.852,278.5 " fill="none" id="Osa-&gt;Yashiki" style="stroke: #A80036; stroke-width: 1.0;"/><polygon fill="#A80036" points="535.872,278.5,526.872,274.5,530.872,278.5,526.872,282.5,535.872,278.5" style="stroke: #A80036; stroke-width: 1.0;"/><text fill="#000000" font-family="sans-serif" font-size="13" lengthAdjust="spacingAndGlyphs" textLength="26" x="436" y="274.9951">転移</text><!--
@startuml

left to right direction
skinparam packageStyle rectangle

usecase メリイ as Mary
actor "メリイ\n(オリジナル)" as Mary_Origin
actor 九条正宗 as Masamune
actor 九条サヤ as Saya
actor "ムーラン・ロゼ" as Rose
usecase シルシの長 as Osa
actor 八敷一男 as Yashiki

Mary_Origin <|- Mary : 魂を人形に\n封じられる
Mary -> Osa : 封印

Saya - -> Mary
Rose - -> Mary : シルシの長ごと\n破壊を計画

Mary - -> Masamune : 逆さ呪い\n(青いシルシ)を刻む
Mary <- - Masamune : 念持仏を取り出し\n生贄の輪から解放

Masamune <|- Yashiki
Osa - -> Yashiki : 転移

@enduml

PlantUML version 1.2019.09(Tue Aug 27 01:19:51 GMT+09:00 2019)
(GPL source distribution)
Java Runtime: Java(TM) SE Runtime Environment
JVM: Java HotSpot(TM) 64-Bit Server VM
Java Version: 1.8.0_231-b11
Operating System: Windows 10
OS Version: 10.0
Default Encoding: MS932
Language: ja
Country: JP
--></g></svg>